<svg width="475" height="99" viewBox="0 0 475 99" fill="none" xmlns="http://www.w3.org/2000/svg">
<g filter="url(#filter0_d_5_3332)">
<path d="M325.009 5.20002C322.343 8.00002 316.076 15.0667 310.876 20.9333L301.543 31.6L290.876 32.2667C275.543 33.2 265.809 38.4 260.743 48.2667C257.543 54.6667 257.543 57.4667 261.009 61.8667C266.343 68.5334 272.609 65.7334 289.809 49.0667C300.609 38.4 302.209 37.2 304.743 38.5334C308.343 40.5334 309.409 44.9334 308.343 53.7334C307.409 62.4 309.809 69.8667 313.676 70.4C316.209 70.8 316.343 70.2667 315.809 62.1334C315.143 51.0667 319.809 34 329.009 14.8C332.609 7.20002 335.543 0.800018 335.543 0.533356C335.543 0.266685 334.209 2.28882e-05 332.609 2.28882e-05C331.009 2.28882e-05 327.676 2.26669 325.009 5.20002ZM315.543 26.9333C313.543 32.2667 311.676 37.4667 311.409 38.4C311.009 39.6 309.943 39.2 307.809 36.9334L304.743 33.7334L311.543 25.4667C315.409 21.0667 318.609 17.3334 318.876 17.3334C319.009 17.3334 317.543 21.7334 315.543 26.9333ZM295.276 35.8667C296.609 36.6667 293.943 39.7334 286.076 47.2C273.409 59.0667 268.343 62.2667 265.409 59.8667C261.943 56.9334 263.543 50.6667 269.409 44.2667C273.276 40 278.743 37.2 286.076 36C289.409 35.4667 292.476 34.9334 292.876 34.8C293.276 34.8 294.343 35.2 295.276 35.8667Z" fill="white"/>
<path d="M39.5426 6.80019C30.076 13.6002 23.8093 19.7335 21.4093 24.2669C18.876 29.2002 19.0093 38.1335 21.676 39.2002C25.4093 40.6669 25.8093 40.1335 26.476 32.8002C27.1426 24.6669 31.4093 17.2002 38.3426 12.1335L42.476 9.06686L41.5426 13.4669C34.476 48.5335 29.4093 62.2669 22.3426 65.8669C16.6093 68.8002 13.276 68.5335 10.7426 64.6669C5.80931 57.2002 14.476 46.8002 24.476 48.4002C29.276 49.2002 29.5426 49.0669 27.5426 45.2002C25.8093 42.0002 18.076 41.7335 12.876 44.8002C-1.92403 53.6002 5.80931 75.7335 22.2093 70.8002C27.9426 69.0669 34.7426 62.1335 37.9426 54.8002C39.8093 50.6669 51.0093 9.46686 51.9426 4.0002C52.476 0.266861 46.876 1.46687 39.5426 6.80019Z" fill="white"/>
<path d="M387.143 12.1334C382.876 15.4668 378.076 24.4001 375.009 34.5334C372.876 41.7334 366.476 53.0668 362.743 56.0001C360.343 58.1334 360.343 57.3334 363.543 49.3334C366.076 42.8001 366.076 42.6668 363.676 42.6668C362.209 42.6668 358.343 45.8668 354.876 49.6001C349.943 55.0668 348.876 56.0001 349.543 53.3334C350.076 51.4668 352.076 47.6001 354.076 44.6668C357.009 40.4001 358.476 39.3334 361.409 39.6001C366.209 40.0001 365.676 35.4668 360.876 34.9334C355.143 34.4001 349.543 39.0668 345.143 48.2668C338.209 63.0668 333.409 64.4001 338.876 50.0001C342.743 39.6001 343.009 36.5334 340.076 35.4668C337.676 34.5334 336.209 35.2001 331.676 39.2001L328.476 42.0001L330.076 39.0668C332.076 35.0668 331.943 34.6668 328.209 34.6668C325.676 34.6668 324.343 35.8668 322.343 39.8668C318.743 46.9334 316.343 56.6668 317.409 60.6668C318.476 64.6668 322.209 65.2001 322.209 61.3334C322.209 57.6001 326.476 49.7334 331.409 44.0001L335.409 39.3334L332.876 46.9334C330.076 54.9334 329.676 58.4001 331.009 61.8668C332.209 64.8001 336.876 64.5334 340.343 61.2001L343.276 58.4001L344.209 61.2001C345.543 65.4668 347.809 64.5334 351.943 58.2668L355.676 52.6668L355.276 58.0001C354.876 62.6668 355.276 63.3334 357.809 63.7334C359.943 64.0001 361.943 62.4001 365.809 57.3334L370.876 50.5334L371.676 55.2001C373.143 64.4001 377.676 66.2668 383.809 60.4001L387.543 56.8001V60.4001C387.543 65.2001 391.676 65.2001 395.409 60.5334C397.009 58.5334 398.209 57.6001 398.209 58.4001C398.209 59.2001 395.809 62.6668 392.876 66.0001C383.543 76.6668 380.876 85.3334 386.609 86.4001C390.343 87.2001 396.209 79.6001 400.876 68.2668C405.009 58.1334 415.809 44.5334 418.476 46.1334C420.609 47.4668 419.409 52.9334 416.209 56.0001C412.476 59.4668 412.076 61.6001 414.609 63.7334C415.676 64.6668 417.543 64.5334 420.476 63.3334C424.076 61.8668 425.009 60.5334 425.676 56.1334C426.209 52.4001 427.543 50.0001 429.943 48.5334C433.143 46.4001 433.276 46.4001 432.476 49.4668C429.676 61.3334 430.476 66.5334 434.743 64.9334C435.943 64.4001 439.676 60.1334 443.276 55.3334C448.476 48.1334 449.676 47.0668 449.943 49.4668C450.209 51.2001 449.009 53.7334 447.009 55.8668C443.009 60.0001 442.743 61.7334 445.409 63.8668C446.876 65.2001 448.209 65.0668 451.276 63.4668C455.543 61.3334 456.876 58.9334 456.876 53.8668C456.876 52.1334 457.276 50.6668 457.943 50.6668C459.676 50.6668 470.876 40.2668 469.943 39.3334C469.543 38.9334 466.209 40.6668 462.609 43.4668L456.209 48.4001L455.809 44.6668C455.009 38.8001 456.609 34.9334 460.609 32.8001C463.676 31.2001 463.943 30.8001 461.809 30.0001C456.743 28.0001 452.743 30.5334 449.409 38.0001C445.676 46.8001 436.476 60.8001 435.809 58.9334C435.409 57.7334 437.543 51.8668 442.743 39.6001L444.876 34.6668H441.543C439.409 34.6668 437.676 35.8668 436.609 38.0001C435.676 39.7334 432.743 42.8001 430.209 44.6668C425.676 48.0001 425.676 48.0001 424.609 45.2001C423.009 40.9334 424.876 36.0001 429.009 33.4668C433.276 30.9334 432.876 29.3334 427.943 29.3334C424.076 29.3334 418.209 34.8001 418.209 38.4001C418.209 39.7334 415.809 42.8001 413.009 45.0668L407.809 49.2001L409.943 42.6668C411.143 39.0668 411.676 35.7334 411.276 35.2001C409.409 33.4668 405.276 36.2668 403.809 40.4001C401.809 45.8668 393.009 59.8668 392.876 57.6001C392.876 56.5334 394.343 51.3334 396.209 45.7334C398.076 40.1334 399.276 35.3334 398.876 34.9334C398.476 34.5334 396.876 34.9334 395.143 35.6001C393.009 36.6668 391.409 39.0668 390.209 43.3334C388.209 50.5334 381.809 60.0001 378.876 60.0001C374.876 60.0001 376.476 50.2668 381.676 42.5334C388.343 32.8001 395.809 16.5334 395.276 12.9334C394.743 8.93343 391.409 8.66677 387.143 12.1334ZM391.543 16.5334C389.676 21.4668 380.876 38.6668 380.209 38.6668C379.409 38.6668 382.876 29.2001 386.209 22.5334C390.609 13.8668 394.076 10.0001 391.543 16.5334ZM418.876 59.8668C418.476 60.6668 417.409 61.3334 416.609 61.3334C415.809 61.3334 415.809 60.5334 416.876 59.3334C418.743 57.0668 420.343 57.6001 418.876 59.8668ZM449.143 60.2668C448.209 61.2001 447.543 61.3334 447.543 60.5334C447.543 58.6668 449.143 57.0668 450.076 58.0001C450.343 58.4001 449.943 59.4668 449.143 60.2668ZM390.209 77.4668C388.609 80.5334 387.009 82.5334 386.609 82.1334C385.943 81.4668 391.276 72.0001 392.343 72.0001C392.609 72.0001 391.676 74.4001 390.209 77.4668Z" fill="white"/>
<path d="M103.943 16.8001C102.609 18.6667 100.209 21.4667 98.6092 22.9334C97.0092 24.5334 95.9426 26.2667 96.3426 26.9334C98.2092 30.0001 93.8092 40.1334 88.8759 44.0001C86.0759 46.2667 83.4092 48.0001 83.0092 48.0001C82.6092 48.0001 82.2092 45.6001 82.2092 42.8001C82.2092 38.6667 83.0092 36.9334 86.0759 34.2667C90.3426 30.6667 90.2092 29.3334 85.4092 29.3334C82.0759 29.3334 75.5426 36.2667 75.5426 39.7334C75.5426 42.6667 68.6092 54.6667 65.0092 57.8667C62.2092 60.4001 62.2092 60.4001 62.2092 57.6001C62.2092 56.1334 63.4092 52.1334 64.8759 48.6667C68.3426 40.5334 68.3426 36.4001 64.7426 35.3334C62.7426 34.6667 60.8759 35.4667 57.9426 38.2667C54.6092 41.3334 54.0759 41.4667 55.4092 39.0667C57.4092 35.0667 57.2759 34.6667 53.5426 34.6667C51.0092 34.6667 49.6759 36.0001 47.5426 39.8667C44.2092 46.5334 41.8092 57.0667 42.8759 60.9334C43.8092 65.0667 47.5426 64.9334 47.5426 60.8001C47.5426 58.0001 56.7426 42.4001 59.5426 40.6667C60.0759 40.4001 59.4092 44.0001 57.9426 48.8001C55.8092 55.7334 55.5426 58.2667 56.7426 60.8001C59.5426 67.0667 65.6759 63.8667 73.0092 52.2667C76.2092 47.2001 76.8759 46.6667 76.8759 49.2001C76.8759 50.9334 75.4092 54.0001 73.5426 56.2667C69.5426 60.9334 69.4092 62.1334 72.6092 63.7334C77.5426 66.4001 83.5426 61.2001 83.5426 54.4001C83.5426 52.2667 84.8759 50.4001 87.4092 48.9334L91.2759 46.6667L90.6092 54.8001C89.6759 64.8001 91.6759 67.0667 97.0092 61.8667C100.609 58.4001 100.609 58.4001 101.543 61.2001C102.876 65.3334 105.676 64.5334 109.143 58.9334L112.209 54.0001L112.609 58.9334C113.143 65.3334 116.476 65.7334 121.276 60.1334L124.609 56.1334L125.409 60.1334C126.476 65.4667 129.143 64.9334 133.409 58.6667C135.276 55.7334 137.276 53.3334 137.676 53.3334C139.409 53.3334 136.209 59.4667 130.076 67.4667C121.409 79.0667 119.676 86.6667 125.943 86.6667C130.609 86.6667 135.809 78.9334 140.209 65.3334C141.943 59.7334 144.476 56.0001 151.276 49.0667C156.076 44.1334 160.209 40.2667 160.476 40.5334C160.743 40.6667 159.676 43.7334 158.209 47.2001C154.743 54.8001 155.009 63.0667 158.743 63.7334C160.076 64.0001 163.009 62.4001 165.543 60.0001L169.943 55.7334L170.476 59.4667C171.143 65.0667 173.676 64.8001 178.076 58.5334L182.209 52.9334L181.809 58.1334C181.409 64.9334 184.743 65.7334 190.076 60.0001L193.809 55.8667L194.609 59.8667C195.676 64.8001 199.543 65.6001 199.543 60.8001C199.543 57.8667 208.876 42.4001 211.543 40.6667C212.209 40.2667 211.809 42.5334 210.743 45.8667C208.476 52.4001 208.743 62.8001 211.009 63.6001C211.943 63.8667 212.876 62.1334 213.409 59.6001C214.209 55.6001 224.476 39.2001 225.543 40.2667C225.809 40.5334 224.743 44.4001 223.276 49.0667C221.009 55.7334 220.743 58.0001 221.943 60.6667C225.276 67.7334 232.609 63.0667 240.743 48.6667C245.009 41.0667 245.676 38.6667 243.676 38.6667C242.876 38.6667 240.476 42.2667 238.209 46.5334C233.409 55.4667 227.543 62.0001 227.543 58.2667C227.543 57.0667 229.009 52.2667 230.743 47.6001C235.409 35.3334 232.209 30.9334 223.676 38.0001L219.676 41.4667L219.276 38.4001C218.743 34.0001 215.276 34.0001 210.209 38.2667C206.476 41.3334 206.076 41.4667 207.276 39.0667C209.543 35.0667 209.276 34.6667 205.543 34.6667C203.009 34.6667 201.543 36.0001 199.409 40.2667C195.809 47.4667 188.743 57.7334 188.076 56.9334C187.809 56.6667 188.476 53.8667 189.543 50.6667C190.609 47.6001 191.543 44.5334 191.543 43.8667C191.543 40.8001 187.276 43.3334 181.676 49.4667C175.143 56.6667 173.943 56.2667 178.076 48.2667C181.676 41.3334 185.409 38.2667 188.876 39.3334C191.276 40.1334 191.676 39.7334 191.276 37.7334C191.009 36.4001 189.543 35.2001 187.943 34.9334C182.743 34.1334 177.143 38.4001 171.143 47.7334C160.343 64.4001 157.143 63.0667 165.543 45.4667C168.209 40.0001 169.943 35.3334 169.543 34.9334C169.143 34.5334 166.743 34.9334 164.076 35.7334C160.076 36.9334 159.409 36.8001 160.076 35.2001C160.476 34.1334 161.276 32.4001 161.676 31.3334C162.209 29.8667 161.543 29.3334 159.143 29.3334C156.743 29.3334 155.409 30.4001 154.209 33.3334C153.276 35.4667 152.876 38.1334 153.276 39.2001C153.676 40.2667 152.209 42.6667 149.943 44.8001C147.143 47.4667 146.076 47.8667 146.609 46.2667C147.276 44.5334 146.743 44.0001 144.209 44.0001C142.076 44.0001 139.409 45.8667 136.076 50.0001C133.276 53.2001 130.876 55.7334 130.609 55.4667C129.809 54.6667 133.943 46.0001 136.876 42.2667C139.143 39.4667 140.609 38.6667 142.876 39.2001C146.476 40.1334 147.943 38.8001 146.076 36.4001C141.809 31.3334 133.543 36.1334 125.543 48.5334C121.943 54.1334 118.876 58.4001 118.609 58.1334C118.343 57.8667 119.276 54.5334 120.743 50.5334C122.209 46.6667 123.276 43.2001 123.009 42.9334C121.409 41.3334 116.076 45.0667 111.276 51.0667C105.676 58.2667 105.276 56.5334 110.343 46.5334C113.276 40.6667 115.809 38.5334 119.009 38.9334C122.076 39.4667 123.143 37.0667 120.476 35.4667C115.676 32.4001 106.743 38.8001 102.343 48.5334C101.009 51.6001 98.8759 55.2001 97.6759 56.6667C95.4092 59.2001 95.4092 59.0667 96.2092 54.0001C97.6759 45.4667 103.409 28.2667 105.676 26.0001C106.743 24.9334 109.676 24.0001 111.943 24.0001C114.343 24.0001 117.143 23.3334 118.209 22.6667C119.676 21.7334 118.343 21.3334 113.676 21.3334H107.276L109.409 18.0001C112.209 13.8667 112.076 13.3334 108.876 13.3334C107.543 13.3334 105.276 14.9334 103.943 16.8001ZM77.4092 59.2001C76.6092 61.3334 74.2092 62.2667 74.2092 60.2667C74.2092 58.9334 77.1426 55.8667 77.8092 56.5334C78.0759 56.8001 77.9426 58.0001 77.4092 59.2001ZM128.876 77.3334C127.276 80.4001 125.676 82.6667 125.276 82.2667C124.876 81.8667 125.943 79.0667 127.676 76.1334C131.543 69.0667 132.609 70.0001 128.876 77.3334Z" fill="white"/>
<path d="M445.409 19.7335C444.609 20.2668 443.276 22.6668 442.476 24.9335C441.143 28.8002 441.276 29.3335 443.409 29.3335C444.743 29.3335 447.009 27.0668 448.743 24.0002C451.543 19.0668 451.543 18.6668 449.276 18.6668C447.943 18.6668 446.209 19.2002 445.409 19.7335Z" fill="white"/>
</g>
<defs>
<filter id="filter0_d_5_3332" x="0.5" y="0" width="473.998" height="98.1667" filterUnits="userSpaceOnUse" color-interpolation-filters="sRGB">
<feFlood flood-opacity="0" result="BackgroundImageFix"/>
<feColorMatrix in="SourceAlpha" type="matrix" values="0 0 0 0 0 0 0 0 0 0 0 0 0 0 0 0 0 0 127 0" result="hardAlpha"/>
<feOffset dy="7"/>
<feGaussianBlur stdDeviation="2.25"/>
<feComposite in2="hardAlpha" operator="out"/>
<feColorMatrix type="matrix" values="0 0 0 0 0 0 0 0 0 0 0 0 0 0 0 0 0 0 0.35 0"/>
<feBlend mode="normal" in2="BackgroundImageFix" result="effect1_dropShadow_5_3332"/>
<feBlend mode="normal" in="SourceGraphic" in2="effect1_dropShadow_5_3332" result="shape"/>
</filter>
</defs>
</svg>
