<svg width="70" height="70" viewBox="0 0 70 70" fill="none" xmlns="http://www.w3.org/2000/svg">
<g filter="url(#filter0_b_35_59)">
<path d="M0 35C0 15.67 15.67 0 35 0V0C54.33 0 70 15.67 70 35V35C70 54.33 54.33 70 35 70V70C15.67 70 0 54.33 0 35V35Z" fill="url(#paint0_linear_35_59)"/>
</g>
<path d="M40.8509 16.0734C41.2301 16.6456 41.6093 17.2179 42 17.8075C41.605 19.3656 41.605 19.3656 40.8509 21.3481C39.5981 24.7827 38.7029 28.2134 37.9233 31.7862C36.8211 36.8224 35.6789 41.6432 33.382 46.2769C33.2051 46.6379 33.0282 46.9989 32.846 47.3708C31.242 50.3656 29.1628 52.5573 25.913 53.6472C20.3817 54.2502 20.3817 54.2502 17.7977 52.2743C15.818 49.4858 15.8553 47.1848 16.1459 43.8202C17.4475 40.6496 19.8727 38.937 22.9326 37.606C23.5369 37.3676 24.1413 37.1291 24.7639 36.8835C24.3847 36.502 24.0055 36.1204 23.6149 35.7274C23.0055 32.609 23.3336 29.9683 25.0153 27.2732C28.1471 23.0818 35.1853 15.1552 40.8509 16.0734ZM31.701 24.06C28.5427 27.4053 27.3348 31.1627 27.199 35.7093C27.0621 36.8835 27.0621 36.8835 25.913 38.0396C26.4818 38.0396 27.0506 38.0396 27.6366 38.0396C28.0158 39.3749 28.395 40.7102 28.7857 42.086C27.9325 41.7999 27.9325 41.7999 27.0621 41.5079C23.6928 41.2792 23.6928 41.2792 20.7422 42.6641C19.4033 44.5101 18.6191 46.1548 18.444 48.4446C19.0055 50.0091 19.2513 50.5849 20.7422 51.3349C23.2041 51.6154 24.3306 51.6797 26.308 50.1066C32.8733 41.8942 33.908 31.367 35.6801 21.2759C34.212 21.2759 32.7271 23.1389 31.701 24.06Z" fill="white"/>
<path d="M46.8647 34.0372C47.4593 34.6073 47.4593 34.6073 47.4965 36.0681C47.4842 36.5267 47.472 36.9853 47.4593 37.4578C46.8707 37.4578 46.282 37.4578 45.6755 37.4578C45.6755 37.0815 45.6755 36.7052 45.6755 36.3176C42.5198 37.6623 41.6106 39.6876 40.3241 42.5887C40.5832 42.3072 40.8422 42.0257 41.1092 41.7358C44.0376 38.7153 44.0376 38.7153 46.5303 38.0635C47.0331 38.0517 47.5359 38.04 48.054 38.0279C47.4653 40.0973 46.8766 42.1668 46.2701 44.299C46.5499 43.9139 46.8297 43.5288 47.1179 43.1321C47.6732 42.3692 47.6732 42.3692 48.2398 41.591C48.7882 40.837 48.7882 40.837 49.3477 40.0678C49.7056 39.5827 50.0636 39.0977 50.4324 38.598C50.7351 38.16 51.0379 37.722 51.3498 37.2707C51.7787 36.7989 51.7787 36.7989 52.2162 36.3176C52.8048 36.3176 53.3935 36.3176 54 36.3176C53.7138 39.1035 52.2679 40.9712 50.581 43.1588C50.325 43.5027 50.069 43.8466 49.8052 44.201C48.2026 46.3172 46.5502 48.2714 44.4863 50C42.814 49.8931 42.814 49.8931 41.5133 49.4299C41.3171 48.4892 41.1209 47.5486 40.9187 46.5794C40.4649 47.1438 40.0112 47.7082 39.5437 48.2897C38.7702 49.2517 38.7702 49.2517 37.9457 50C37.357 50 36.7684 50 36.1619 50C34.5026 47.3116 34.9243 44.9892 35.5673 42.0186C36.683 38.9628 38.3229 36.7132 40.9187 34.6073C42.9962 33.9433 44.6864 33.9598 46.8647 34.0372Z" fill="white"/>
<defs>
<filter id="filter0_b_35_59" x="-200" y="-200" width="470" height="470" filterUnits="userSpaceOnUse" color-interpolation-filters="sRGB">
<feFlood flood-opacity="0" result="BackgroundImageFix"/>
<feGaussianBlur in="BackgroundImageFix" stdDeviation="100"/>
<feComposite in2="SourceAlpha" operator="in" result="effect1_backgroundBlur_35_59"/>
<feBlend mode="normal" in="SourceGraphic" in2="effect1_backgroundBlur_35_59" result="shape"/>
</filter>
<linearGradient id="paint0_linear_35_59" x1="45.2018" y1="-7.20589" x2="-14.8622" y2="16.5488" gradientUnits="userSpaceOnUse">
<stop stop-color="#515BD4" stop-opacity="0.9"/>
<stop offset="0.265" stop-color="#8B33A9" stop-opacity="0.9"/>
<stop offset="0.55" stop-color="#C82C82" stop-opacity="0.9"/>
<stop offset="0.76" stop-color="#E3772D" stop-opacity="0.9"/>
<stop offset="1" stop-color="#FEDA77" stop-opacity="0.9"/>
</linearGradient>
</defs>
</svg>
