<svg width="93" height="93" viewBox="0 0 93 93" fill="none" xmlns="http://www.w3.org/2000/svg">
<path d="M60.4853 0.0787043C60.7991 0.0766292 60.7991 0.0766292 61.1192 0.0745122C61.3478 0.0739923 61.5764 0.0734724 61.812 0.0729368C62.0535 0.0716663 62.295 0.0703959 62.5439 0.0690869C63.3445 0.0652712 64.1452 0.0630154 64.9458 0.0610891C65.2223 0.0603061 65.4987 0.0595101 65.7752 0.0587013C67.0751 0.0550186 68.3749 0.0522676 69.6748 0.050656C71.1707 0.0487705 72.6665 0.0436916 74.1624 0.0358654C75.3213 0.030012 76.4802 0.0271691 77.6392 0.0265309C78.33 0.0260787 79.0207 0.0243763 79.7115 0.0194815C80.4843 0.0140947 81.2569 0.0149544 82.0296 0.0162942C82.2551 0.0138175 82.4805 0.0113408 82.7128 0.00878906C85.6289 0.0271211 88.0348 1.15022 90.1389 3.12734C91.732 4.7829 92.9195 7.12888 92.93 9.45236C92.9321 9.76615 92.9321 9.76615 92.9342 10.0863C92.9347 10.3149 92.9353 10.5435 92.9358 10.779C92.9371 11.0205 92.9383 11.2621 92.9397 11.5109C92.9435 12.3116 92.9457 13.1122 92.9477 13.9129C92.9484 14.1893 92.9492 14.4658 92.95 14.7422C92.9537 16.0421 92.9565 17.342 92.9581 18.6419C92.96 20.1378 92.965 21.6336 92.9729 23.1294C92.9787 24.2884 92.9816 25.4473 92.9822 26.6062C92.9827 27.297 92.9844 27.9878 92.9893 28.6786C92.9946 29.4513 92.9938 30.2239 92.9924 30.9966C92.9962 31.3348 92.9962 31.3348 93 31.6799C92.9816 34.596 91.8585 37.0018 89.8814 39.106C88.1251 40.796 85.7481 41.8883 83.3064 41.8971C83.1778 41.8978 83.0493 41.8985 82.9169 41.8992C82.4864 41.9014 82.0561 41.9021 81.6256 41.9028C81.3169 41.9041 81.0082 41.9053 80.6995 41.9067C79.6861 41.9108 78.6728 41.9128 77.6594 41.9147C77.3104 41.9155 76.9614 41.9163 76.6124 41.9171C74.9731 41.9208 73.3338 41.9235 71.6944 41.9251C69.8023 41.927 67.9102 41.9321 66.0181 41.9399C64.5553 41.9457 63.0925 41.9486 61.6296 41.9493C60.756 41.9497 59.8825 41.9514 59.0089 41.9563C58.1871 41.9608 57.3655 41.9616 56.5438 41.9596C56.2424 41.9595 55.9411 41.9608 55.6398 41.9634C55.2279 41.9668 54.8162 41.9655 54.4042 41.9629C54.1739 41.9634 53.9436 41.9638 53.7063 41.9643C52.6745 41.8083 52.1166 41.34 51.4604 40.5494C51.0931 39.845 51.0429 39.4058 51.0419 38.6149C51.0407 38.4869 51.0395 38.3588 51.0383 38.2269C51.0352 37.8003 51.0376 37.374 51.04 36.9474C51.039 36.6405 51.0376 36.3336 51.0359 36.0268C51.0324 35.1946 51.0338 34.3625 51.0362 33.5303C51.0382 32.6574 51.0364 31.7846 51.0352 30.9117C51.0338 29.4447 51.0356 27.9777 51.0393 26.5107C51.0435 24.8192 51.0421 23.1278 51.0379 21.4363C51.0344 19.9809 51.0339 18.5256 51.0359 17.0703C51.0371 16.2025 51.0373 15.3348 51.0347 14.467C51.0325 13.6497 51.0341 12.8325 51.0385 12.0152C51.0395 11.7168 51.0392 11.4185 51.0375 11.1202C51.0204 7.84748 51.9084 5.26636 54.1603 2.86981C55.8159 1.27677 58.1618 0.0892743 60.4853 0.0787043ZM58.2454 7.93743C57.154 9.49651 57.2995 11.1659 57.305 13.0084C57.305 13.2538 57.305 13.4991 57.305 13.7519C57.3049 14.4213 57.306 15.0907 57.3074 15.7601C57.3086 16.4609 57.3087 17.1617 57.3089 17.8625C57.3095 19.1881 57.3111 20.5137 57.3131 21.8393C57.3152 23.3491 57.3163 24.8589 57.3173 26.3687C57.3193 29.473 57.3227 32.5774 57.327 35.6817C60.6026 35.6908 63.8782 35.6976 67.1538 35.7018C68.6748 35.7038 70.1958 35.7065 71.7168 35.7109C73.0429 35.7148 74.369 35.7173 75.6951 35.7181C76.3969 35.7186 77.0987 35.7198 77.8005 35.7226C78.585 35.7258 79.3695 35.7258 80.154 35.7256C80.3852 35.727 80.6165 35.7284 80.8548 35.7299C82.5677 35.7256 83.9708 35.6278 85.3613 34.5217C86.7677 32.9591 86.7437 31.3945 86.7428 29.3854C86.7434 29.1844 86.7441 28.9833 86.7448 28.7762C86.7466 28.114 86.747 27.4518 86.7472 26.7896C86.7478 26.3276 86.7484 25.8655 86.7491 25.4035C86.7503 24.4358 86.7506 23.4682 86.7505 22.5005C86.7505 21.263 86.7531 20.0254 86.7565 18.7878C86.7586 17.8338 86.759 16.8797 86.7589 15.9257C86.7591 15.4695 86.76 15.0133 86.7615 14.5572C86.7634 13.9182 86.7628 13.2793 86.7617 12.6404C86.7627 12.4535 86.7638 12.2666 86.765 12.0741C86.7574 10.4286 86.6249 8.9623 85.5547 7.64742C84.0351 6.27979 82.5585 6.26506 80.5951 6.26596C80.39 6.26531 80.1849 6.26466 79.9736 6.26399C79.2968 6.26216 78.6201 6.26178 77.9434 6.26157C77.4719 6.26095 77.0005 6.2603 76.529 6.25962C75.5412 6.25846 74.5534 6.2581 73.5656 6.25822C72.3013 6.25824 71.0371 6.2556 69.7728 6.25227C68.7992 6.25011 67.8256 6.24972 66.852 6.24983C66.3859 6.2496 65.9199 6.24875 65.4539 6.24725C64.8014 6.24535 64.149 6.24591 63.4966 6.24708C63.3051 6.24599 63.1136 6.2449 62.9164 6.24378C61.0738 6.25211 59.5406 6.49829 58.2454 7.93743Z" fill="white"/>
<path d="M9.44357 0.0787043C9.75736 0.0766292 9.75736 0.0766292 10.0775 0.0745122C10.3061 0.0739923 10.5347 0.0734725 10.7702 0.0729368C11.0117 0.0716664 11.2533 0.0703959 11.5021 0.0690869C12.3028 0.0652713 13.1034 0.0630154 13.9041 0.0610891C14.1805 0.0603061 14.457 0.0595101 14.7334 0.0587013C16.0333 0.0550186 17.3332 0.0522676 18.6331 0.050656C20.129 0.0487705 21.6248 0.0436916 23.1206 0.0358654C24.2796 0.030012 25.4385 0.0271691 26.5974 0.0265309C27.2882 0.0260787 27.979 0.0243763 28.6698 0.0194815C29.4425 0.0140947 30.2151 0.0149544 30.9879 0.0162942C31.2133 0.0138175 31.4388 0.0113408 31.6711 0.00878906C34.5872 0.0271211 36.993 1.15022 39.0972 3.12734C40.7872 4.88367 41.8795 7.26063 41.8883 9.70239C41.889 9.83092 41.8897 9.95946 41.8904 10.0919C41.8926 10.5223 41.8933 10.9527 41.8941 11.3831C41.8953 11.6918 41.8966 12.0005 41.8979 12.3092C41.902 13.3226 41.904 14.336 41.9059 15.3493C41.9067 15.6983 41.9075 16.0473 41.9083 16.3964C41.912 18.0357 41.9147 19.675 41.9163 21.3143C41.9182 23.2064 41.9233 25.0985 41.9311 26.9906C41.937 28.4534 41.9398 29.9163 41.9405 31.3791C41.9409 32.2527 41.9427 33.1263 41.9475 33.9999C41.952 34.8216 41.9528 35.6432 41.9508 36.465C41.9507 36.7663 41.952 37.0676 41.9546 37.3689C41.9581 37.7809 41.9567 38.1926 41.9541 38.6045C41.9546 38.8348 41.9551 39.0652 41.9555 39.3025C41.7995 40.3343 41.3312 40.8921 40.5406 41.5483C39.8362 41.9157 39.397 41.9658 38.6061 41.9668C38.4781 41.968 38.35 41.9692 38.2181 41.9705C37.7916 41.9736 37.3652 41.9711 36.9386 41.9687C36.6317 41.9697 36.3248 41.9711 36.018 41.9728C35.1858 41.9763 34.3537 41.975 33.5215 41.9725C32.6487 41.9705 31.7758 41.9724 30.9029 41.9736C29.4359 41.975 27.9689 41.9731 26.5019 41.9695C24.8104 41.9653 23.119 41.9666 21.4275 41.9709C19.9721 41.9744 18.5169 41.9749 17.0615 41.9728C16.1937 41.9716 15.326 41.9715 14.4582 41.974C13.6409 41.9763 12.8237 41.9747 12.0064 41.9702C11.708 41.9692 11.4097 41.9695 11.1114 41.9712C7.83869 41.9883 5.25757 41.1003 2.86102 38.8484C1.26798 37.1929 0.0804853 34.8469 0.0699153 32.5234C0.0685319 32.3142 0.0671485 32.105 0.0657231 31.8895C0.0652033 31.6609 0.0646834 31.4323 0.0641478 31.1968C0.0628773 30.9552 0.0616068 30.7137 0.0602978 30.4649C0.0564822 29.6642 0.0542264 28.8636 0.0523 28.0629C0.051517 27.7865 0.0507214 27.51 0.0499126 27.2336C0.0462299 25.9337 0.0434785 24.6338 0.0418669 23.3339C0.0399813 21.838 0.0349026 20.3422 0.0270763 18.8464C0.021223 17.6874 0.0183804 16.5285 0.0177421 15.3696C0.0172899 14.6787 0.0155869 13.988 0.010692 13.2972C0.00530524 12.5245 0.00616531 11.7519 0.00750515 10.9791C0.00502845 10.7537 0.00255175 10.5282 0 10.2959C0.018332 7.37982 1.14143 4.97396 3.11855 2.86981C4.77411 1.27677 7.12009 0.0892744 9.44357 0.0787043ZM7.20362 7.93743C6.19149 9.38333 6.25637 10.8793 6.25717 12.5903C6.25652 12.7914 6.25587 12.9925 6.2552 13.1996C6.25337 13.8618 6.25299 14.524 6.25278 15.1862C6.25216 15.6482 6.25151 16.1103 6.25083 16.5723C6.24967 17.54 6.24931 18.5076 6.24943 19.4753C6.24945 20.7128 6.24681 21.9504 6.24348 23.1879C6.24132 24.142 6.24094 25.0961 6.24104 26.0501C6.24081 26.5063 6.23996 26.9625 6.23846 27.4186C6.23656 28.0576 6.23712 28.6965 6.23829 29.3354C6.2372 29.5223 6.23611 29.7091 6.23499 29.9017C6.24257 31.5472 6.37504 33.0135 7.44529 34.3284C8.6835 35.4427 9.79573 35.7066 11.4464 35.705C11.6611 35.7053 11.8758 35.7055 12.097 35.7058C12.3297 35.7051 12.5624 35.7044 12.8021 35.7037C13.1729 35.7037 13.1729 35.7037 13.5512 35.7038C14.2266 35.7038 14.902 35.7027 15.5774 35.7013C16.2841 35.7001 16.9909 35.7 17.6977 35.6998C19.0349 35.6992 20.3721 35.6976 21.7094 35.6957C23.2323 35.6935 24.7551 35.6924 26.278 35.6915C29.4097 35.6895 32.5413 35.6861 35.673 35.6817C35.682 32.4347 35.6888 29.1877 35.693 25.9406C35.695 24.4328 35.6977 22.9251 35.7021 21.4173C35.706 20.1026 35.7085 18.7879 35.7093 17.4732C35.7098 16.7775 35.711 16.0819 35.7138 15.3863C35.717 14.6083 35.717 13.8303 35.7168 13.0523C35.7189 12.7092 35.7189 12.7092 35.7211 12.3591C35.7167 10.6088 35.6561 9.05194 34.5129 7.64742C32.9933 6.27979 31.5168 6.26506 29.5534 6.26596C29.3483 6.26531 29.1431 6.26466 28.9318 6.26399C28.2551 6.26216 27.5784 6.26178 26.9017 6.26157C26.4302 6.26095 25.9587 6.2603 25.4873 6.25962C24.4995 6.25846 23.5117 6.2581 22.5238 6.25822C21.2596 6.25824 19.9954 6.2556 18.7311 6.25227C17.7575 6.25012 16.7839 6.24973 15.8102 6.24983C15.3442 6.2496 14.8782 6.24875 14.4121 6.24725C13.7597 6.24535 13.1073 6.24591 12.4549 6.24708C12.2634 6.24599 12.0719 6.2449 11.8746 6.24378C10.0321 6.25211 8.49885 6.49829 7.20362 7.93743Z" fill="white"/>
<path d="M54.3939 51.0507C54.5219 51.0495 54.65 51.0483 54.7819 51.047C55.2085 51.044 55.6348 51.0464 56.0614 51.0488C56.3683 51.0478 56.6752 51.0464 56.982 51.0447C57.8142 51.0412 58.6463 51.0426 59.4785 51.045C60.3514 51.047 61.2242 51.0452 62.0971 51.0439C63.5641 51.0425 65.0311 51.0444 66.4981 51.0481C68.1896 51.0523 69.881 51.0509 71.5725 51.0467C73.0279 51.0431 74.4832 51.0427 75.9385 51.0447C76.8063 51.0459 77.674 51.0461 78.5418 51.0435C79.3591 51.0412 80.1763 51.0428 80.9936 51.0473C81.292 51.0483 81.5903 51.048 81.8886 51.0463C85.1613 51.0292 87.7424 51.9172 90.139 54.1691C91.732 55.8246 92.9195 58.1706 92.9301 60.4941C92.9322 60.8079 92.9322 60.8079 92.9343 61.128C92.9348 61.3566 92.9353 61.5852 92.9359 61.8207C92.9371 62.0623 92.9384 62.3038 92.9397 62.5527C92.9435 63.3533 92.9458 64.1539 92.9477 64.9546C92.9485 65.231 92.9493 65.5075 92.9501 65.784C92.9538 67.0838 92.9565 68.3837 92.9581 69.6836C92.96 71.1795 92.9651 72.6753 92.9729 74.1712C92.9788 75.3301 92.9816 76.489 92.9823 77.648C92.9827 78.3388 92.9844 79.0295 92.9893 79.7203C92.9947 80.493 92.9938 81.2656 92.9925 82.0384C92.9962 82.3766 92.9962 82.3766 93 82.7216C92.9817 85.6377 91.8586 88.0436 89.8815 90.1477C88.2259 91.7408 85.8799 92.9283 83.5564 92.9388C83.2426 92.9409 83.2426 92.9409 82.9225 92.943C82.6939 92.9435 82.4653 92.9441 82.2298 92.9446C81.9883 92.9459 81.7467 92.9471 81.4979 92.9484C80.6972 92.9523 79.8966 92.9545 79.0959 92.9564C78.8195 92.9572 78.543 92.958 78.2666 92.9588C76.9667 92.9625 75.6668 92.9653 74.3669 92.9669C72.871 92.9688 71.3752 92.9738 69.8794 92.9817C68.7204 92.9875 67.5615 92.9904 66.4026 92.991C65.7118 92.9914 65.021 92.9932 64.3302 92.998C63.5575 93.0034 62.7849 93.0026 62.0122 93.0012C61.7867 93.0037 61.5612 93.0062 61.3289 93.0087C58.5739 92.9914 55.9843 91.9442 53.9678 90.0465C52.2756 88.2245 51.1207 85.8112 51.1117 83.3151C51.111 83.1866 51.1103 83.0581 51.1096 82.9256C51.1074 82.4952 51.1067 82.0648 51.1059 81.6344C51.1047 81.3257 51.1035 81.017 51.1021 80.7083C51.098 79.6949 51.096 78.6816 51.0941 77.6682C51.0933 77.3192 51.0925 76.9702 51.0917 76.6212C51.088 74.9819 51.0853 73.3425 51.0837 71.7032C51.0818 69.8111 51.0767 67.919 51.0689 66.0269C51.063 64.5641 51.0602 63.1013 51.0595 61.6384C51.0591 60.7648 51.0574 59.8913 51.0525 59.0177C51.048 58.1959 51.0472 57.3743 51.0492 56.5525C51.0493 56.2512 51.048 55.9499 51.0454 55.6486C51.042 55.2367 51.0433 54.825 51.0459 54.413C51.0454 54.1827 51.0449 53.9524 51.0445 53.7151C51.2005 52.6832 51.6688 52.1254 52.4594 51.4692C53.1638 51.1019 53.603 51.0517 54.3939 51.0507ZM57.3271 57.3358C57.318 60.5828 57.3112 63.8299 57.307 67.0769C57.305 68.5847 57.3023 70.0925 57.2979 71.6002C57.294 72.9149 57.2915 74.2296 57.2907 75.5443C57.2902 76.24 57.289 76.9356 57.2862 77.6313C57.283 78.4093 57.283 79.1872 57.2832 79.9652C57.2818 80.194 57.2804 80.4228 57.2789 80.6585C57.2833 82.4088 57.3439 83.9656 58.4871 85.3701C60.0067 86.7377 61.4832 86.7525 63.4466 86.7516C63.7543 86.7525 63.7543 86.7525 64.0682 86.7535C64.7449 86.7554 65.4216 86.7558 66.0984 86.756C66.5698 86.7566 67.0413 86.7572 67.5127 86.7579C68.5005 86.7591 69.4884 86.7594 70.4762 86.7593C71.7404 86.7593 73.0047 86.7619 74.2689 86.7653C75.2425 86.7674 76.2161 86.7678 77.1898 86.7677C77.6558 86.7679 78.1219 86.7688 78.5879 86.7703C79.2403 86.7722 79.8927 86.7716 80.5451 86.7705C80.7366 86.7715 80.9281 86.7726 81.1254 86.7737C82.7315 86.7665 84.0621 86.5969 85.3614 85.5634C86.7677 84.0008 86.7438 82.4362 86.7428 80.4272C86.7435 80.2261 86.7441 80.0251 86.7448 79.8179C86.7466 79.1557 86.747 78.4935 86.7472 77.8314C86.7478 77.3693 86.7485 76.9073 86.7492 76.4452C86.7503 75.4776 86.7507 74.5099 86.7506 73.5423C86.7506 72.3047 86.7532 71.0672 86.7565 69.8296C86.7587 68.8755 86.7591 67.9215 86.759 66.9674C86.7592 66.5112 86.76 66.0551 86.7615 65.5989C86.7634 64.96 86.7629 64.3211 86.7617 63.6821C86.7628 63.4953 86.7639 63.3084 86.765 63.1159C86.7574 61.4703 86.625 60.004 85.5547 58.6892C84.3165 57.5748 83.2043 57.311 81.5536 57.3125C81.3389 57.3123 81.1242 57.312 80.903 57.3117C80.6703 57.3124 80.4376 57.3131 80.1979 57.3138C79.9507 57.3138 79.7035 57.3138 79.4488 57.3137C78.7734 57.3137 78.098 57.3148 77.4226 57.3162C76.7159 57.3174 76.0091 57.3175 75.3023 57.3177C73.9651 57.3183 72.6279 57.3199 71.2906 57.3219C69.7677 57.324 68.2449 57.3251 66.722 57.3261C63.5903 57.3281 60.4587 57.3315 57.3271 57.3358Z" fill="white"/>
<path d="M9.6936 51.1206C9.82213 51.1199 9.95067 51.1192 10.0831 51.1185C10.5135 51.1163 10.9439 51.1156 11.3743 51.1149C11.683 51.1136 11.9917 51.1124 12.3005 51.111C13.3138 51.1069 14.3272 51.1049 15.3405 51.103C15.6895 51.1022 16.0386 51.1014 16.3876 51.1006C18.0269 51.0969 19.6662 51.0942 21.3055 51.0926C23.1976 51.0907 25.0897 51.0856 26.9818 51.0778C28.4446 51.072 29.9075 51.0691 31.3703 51.0685C32.2439 51.068 33.1175 51.0663 33.9911 51.0614C34.8128 51.0569 35.6345 51.0561 36.4562 51.0581C36.7575 51.0582 37.0588 51.0569 37.3601 51.0543C37.7721 51.0509 38.1838 51.0522 38.5957 51.0548C38.8261 51.0543 39.0564 51.0539 39.2937 51.0534C40.3255 51.2094 40.8834 51.6777 41.5395 52.4683C41.9069 53.1727 41.957 53.6119 41.958 54.4028C41.9592 54.5308 41.9605 54.6589 41.9617 54.7908C41.9648 55.2174 41.9623 55.6437 41.9599 56.0703C41.961 56.3772 41.9623 56.6841 41.964 56.991C41.9675 57.8231 41.9662 58.6552 41.9637 59.4874C41.9618 60.3603 41.9636 61.2331 41.9648 62.106C41.9662 63.573 41.9643 65.04 41.9607 66.507C41.9565 68.1985 41.9578 69.8899 41.9621 71.5815C41.9656 73.0368 41.9661 74.4921 41.9641 75.9474C41.9629 76.8152 41.9627 77.6829 41.9652 78.5507C41.9675 79.368 41.9659 80.1852 41.9615 81.0025C41.9604 81.3009 41.9607 81.5992 41.9624 81.8975C41.9796 85.1702 41.0915 87.7513 38.8397 90.1479C37.1841 91.7409 34.8381 92.9284 32.5146 92.939C32.2008 92.9411 32.2008 92.9411 31.8807 92.9432C31.6521 92.9437 31.4235 92.9442 31.188 92.9448C30.9465 92.946 30.7049 92.9473 30.4561 92.9486C29.6554 92.9524 28.8548 92.9547 28.0541 92.9566C27.7777 92.9574 27.5012 92.9582 27.2248 92.959C25.9249 92.9627 24.625 92.9654 23.3251 92.967C21.8292 92.9689 20.3334 92.974 18.8376 92.9818C17.6786 92.9877 16.5197 92.9905 15.3608 92.9912C14.67 92.9916 13.9792 92.9933 13.2884 92.9982C12.5157 93.0036 11.7431 93.0028 10.9704 93.0014C10.7449 93.0039 10.5194 93.0064 10.2871 93.0089C7.53212 92.9916 4.94247 91.9444 2.92597 90.0467C1.33285 88.3313 0.0807129 85.9389 0.0699153 83.5653C0.0685319 83.3561 0.0671485 83.147 0.0657231 82.9314C0.0652033 82.7028 0.0646834 82.4742 0.0641478 82.2387C0.0628773 81.9972 0.0616068 81.7556 0.0602978 81.5068C0.0564822 80.7061 0.0542264 79.9055 0.0523 79.1049C0.051517 78.8284 0.0507214 78.5519 0.0499126 78.2755C0.0462299 76.9756 0.0434785 75.6757 0.0418669 74.3758C0.0399813 72.88 0.0349026 71.3841 0.0270764 69.8883C0.021223 68.7293 0.0183804 67.5704 0.0177421 66.4115C0.0172899 65.7207 0.0155876 65.0299 0.0106928 64.3391C0.00530598 63.5664 0.00616531 62.7938 0.00750515 62.0211C0.00502845 61.7956 0.00255175 61.5701 0 61.3378C0.018332 58.4217 1.14143 56.0159 3.11855 53.9117C4.87488 52.2217 7.25184 51.1294 9.6936 51.1206ZM7.20362 58.9794C6.19149 60.4253 6.25637 61.9212 6.25717 63.6323C6.25652 63.8333 6.25587 64.0344 6.2552 64.2416C6.25337 64.9037 6.25299 65.5659 6.25278 66.2281C6.25216 66.6902 6.25151 67.1522 6.25083 67.6142C6.24967 68.5819 6.24931 69.5495 6.24943 70.5172C6.24945 71.7547 6.24681 72.9923 6.24348 74.2299C6.24132 75.1839 6.24094 76.138 6.24104 77.092C6.24081 77.5482 6.23996 78.0044 6.23846 78.4605C6.23656 79.0995 6.23713 79.7384 6.23829 80.3773C6.2372 80.5642 6.23611 80.7511 6.235 80.9436C6.24257 82.5892 6.37504 84.0554 7.44529 85.3703C8.96489 86.7379 10.4414 86.7526 12.4048 86.7517C12.7125 86.7527 12.7125 86.7527 13.0264 86.7537C13.7031 86.7556 14.3798 86.7559 15.0566 86.7561C15.528 86.7568 15.9995 86.7574 16.4709 86.7581C17.4587 86.7592 18.4466 86.7596 19.4344 86.7595C20.6986 86.7595 21.9629 86.7621 23.2271 86.7654C24.2007 86.7676 25.1743 86.768 26.148 86.7679C26.614 86.7681 27.0801 86.769 27.5461 86.7705C28.1985 86.7724 28.8509 86.7718 29.5033 86.7706C29.6948 86.7717 29.8863 86.7728 30.0836 86.7739C31.6897 86.7667 33.0203 86.5971 34.3196 85.5636C35.8266 83.8892 35.7014 82.1593 35.6949 80.0093C35.6949 79.6413 35.6949 79.6413 35.695 79.2658C35.695 78.5964 35.6939 77.927 35.6926 77.2576C35.6913 76.5568 35.6912 75.856 35.691 75.1552C35.6904 73.8296 35.6888 72.504 35.6869 71.1784C35.6847 69.6686 35.6837 68.1588 35.6827 66.649C35.6807 63.5447 35.6773 60.4403 35.673 57.336C32.3974 57.3269 29.1218 57.3201 25.8462 57.3159C24.3252 57.3139 22.8042 57.3112 21.2832 57.3068C19.9571 57.3029 18.631 57.3004 17.3049 57.2996C16.6031 57.2991 15.9013 57.2979 15.1995 57.2951C14.415 57.292 13.6305 57.2919 12.846 57.2921C12.6147 57.2907 12.3834 57.2893 12.1452 57.2879C10.197 57.2927 8.58323 57.4465 7.20362 58.9794Z" fill="white"/>
</svg>
