<svg width="40" height="40" viewBox="0 0 40 40" fill="none" xmlns="http://www.w3.org/2000/svg">
<path fill-rule="evenodd" clip-rule="evenodd" d="M40 20C40 31.0456 31.0456 40 20 40C8.9543 40 0 31.0456 0 20C0 8.9543 8.9543 0 20 0C31.0456 0 40 8.9543 40 20ZM28.0606 13.9393C28.6464 14.5251 28.6464 15.4749 28.0606 16.0606L18.0606 26.0606C17.4748 26.6464 16.5252 26.6464 15.9393 26.0606L11.9393 22.0606C11.3536 21.4748 11.3536 20.5252 11.9393 19.9394C12.5251 19.3536 13.4749 19.3536 14.0607 19.9394L17 22.8786L21.4696 18.409L25.9394 13.9393C26.5252 13.3536 27.4748 13.3536 28.0606 13.9393Z" fill="white"/>
</svg>
