<svg width="22" height="22" viewBox="0 0 22 22" fill="none" xmlns="http://www.w3.org/2000/svg">
<path d="M13.1989 10.6665L21.1224 2.74345C21.4037 2.46209 21.4037 2.00678 21.1224 1.72552L19.6081 0.21066C19.4732 0.075884 19.2902 0 19.0992 0C18.9081 0 18.7251 0.075884 18.5902 0.21066L10.6667 8.13427L2.7432 0.21066C2.60833 0.075884 2.42531 0 2.23424 0C2.04321 0 1.86014 0.075884 1.72532 0.21066L0.211019 1.72552C-0.0703397 2.00678 -0.0703397 2.46209 0.211019 2.74345L8.13453 10.6665L0.211806 18.5886C-0.0694137 18.8699 -0.0694137 19.3252 0.211806 19.6065L1.7262 21.1214C1.86098 21.2561 2.04404 21.332 2.23512 21.332C2.42619 21.332 2.60921 21.2561 2.74413 21.1214L10.6667 13.1987L18.5893 21.1214C18.7241 21.2561 18.9071 21.332 19.0982 21.332C19.2893 21.332 19.4724 21.2561 19.6071 21.1214L21.1215 19.6065C21.4028 19.3252 21.4028 18.8699 21.1215 18.5886L13.1989 10.6665Z" fill="white"/>
</svg>
