<svg width="56" height="71" viewBox="0 0 56 71" fill="none" xmlns="http://www.w3.org/2000/svg">
<path d="M27.976 0.158798C28.0798 0.178167 28.0798 0.178167 28.1904 0.130164C28.3286 0.0859682 28.4356 0.0764498 28.5801 0.076135C28.6521 0.0759742 28.6521 0.0759742 28.7255 0.0758102C28.7751 0.0761318 28.8246 0.0764533 28.8757 0.0767846C28.9491 0.0763023 28.9491 0.0763023 29.024 0.0758102C29.8072 0.0775527 30.4642 0.327207 31.0509 0.847061C31.5185 1.3234 31.71 1.95345 31.7169 2.60811C31.7085 2.99074 31.6088 3.35421 31.5086 3.72171C31.416 4.06665 31.3728 4.38681 31.3598 4.74359C31.6319 4.71561 31.9039 4.68751 32.1759 4.65934C32.2681 4.64981 32.3604 4.64029 32.4526 4.6308C32.5864 4.61704 32.7202 4.6032 32.8539 4.58931C32.8977 4.58478 32.9414 4.58024 32.9864 4.57557C33.2309 4.5499 33.4745 4.52091 33.7181 4.48829C34.6567 4.36829 35.6376 4.38027 36.443 4.93295C36.804 5.22094 37.0553 5.66286 37.1388 6.11557C37.1405 6.20166 37.141 6.28778 37.1404 6.37388C37.1402 6.41891 37.1399 6.46393 37.1397 6.51032C37.1392 6.56188 37.1392 6.56188 37.1388 6.61447C37.1631 6.61228 37.1875 6.61009 37.2126 6.60783C37.8447 6.55156 38.4767 6.50926 39.1105 6.47651C39.3623 6.46348 39.6142 6.44994 39.866 6.43648C39.9151 6.43387 39.9643 6.43125 40.0149 6.42856C40.5457 6.40026 41.0763 6.36822 41.6069 6.33514C41.9644 6.31289 42.3219 6.29116 42.6794 6.2693C42.8134 6.26111 42.9474 6.25289 43.0815 6.24468C43.6133 6.21209 44.145 6.17971 44.6768 6.14756C45.1922 6.11638 45.7076 6.08479 46.2229 6.05321C47.22 5.9921 47.22 5.9921 47.6053 5.96876C47.6594 5.96548 47.7134 5.96221 47.7691 5.95883C47.8744 5.95248 47.9796 5.94616 48.0848 5.93987C48.3855 5.92183 48.6861 5.9031 48.9867 5.88359C49.168 5.87185 49.3493 5.86032 49.5306 5.8488C49.6191 5.84313 49.7075 5.83737 49.7959 5.83151C50.2328 5.80257 50.6686 5.77782 51.1065 5.77615C51.1395 5.77593 51.1725 5.77571 51.2065 5.77548C51.5296 5.77685 51.833 5.83316 52.1474 5.90769C52.1744 5.91392 52.2013 5.92016 52.2291 5.92657C52.6349 6.02069 53.0354 6.13351 53.4335 6.25558C53.4898 6.27281 53.5461 6.28985 53.6024 6.3067C54.1437 6.46933 54.6314 6.69597 55.0576 7.0718C55.0918 7.1016 55.126 7.13139 55.1613 7.16209C55.5456 7.51959 55.8233 7.96698 55.9307 8.48535C55.9378 8.51938 55.9449 8.55342 55.9522 8.58848C56.0686 9.43577 55.9434 10.3384 55.8834 11.1885C55.8711 11.3642 55.8592 11.54 55.8473 11.7158C55.8425 11.7866 55.8377 11.8575 55.8328 11.9283C55.8293 11.9807 55.8293 11.9807 55.8257 12.0342C55.8185 12.1391 55.8113 12.244 55.8041 12.349C55.7659 12.9067 55.7304 13.4646 55.6969 14.0226C55.6919 14.1045 55.687 14.1864 55.682 14.2683C55.6724 14.4266 55.6629 14.5849 55.6534 14.7433C55.6333 15.078 55.6128 15.4127 55.5923 15.7474C55.5875 15.8256 55.5827 15.9039 55.5779 15.9822C55.5371 16.6499 55.4959 17.3176 55.4546 17.9853C55.4505 18.0511 55.4505 18.0511 55.4463 18.1182C55.4186 18.5657 55.3909 19.0132 55.3632 19.4607C55.3306 19.9875 55.298 20.5142 55.2655 21.041C55.2634 21.0748 55.2613 21.1087 55.2592 21.1435C55.2126 21.8994 55.1684 22.6555 55.1275 23.4118C55.0919 24.0699 55.0562 24.7276 55.0036 25.3846C54.9726 25.7795 54.9528 26.1749 54.9329 26.5705C54.9089 27.0479 54.8807 27.5243 54.8427 28.0008C54.8084 28.4498 54.7843 28.8993 54.76 29.349C54.6941 30.5669 54.6203 31.7843 54.5448 33.0017C54.5289 33.2597 54.513 33.5176 54.4971 33.7755C54.4674 34.2577 54.4376 34.7399 54.4077 35.222C54.3982 35.3739 54.3888 35.5258 54.3795 35.6777C54.3286 36.5007 54.2748 37.3235 54.2189 38.1461C54.1695 38.8741 54.1236 39.6023 54.0793 40.3307C54.0323 41.1031 53.9843 41.8754 53.9357 42.6478C53.9256 42.8078 53.9156 42.9679 53.9055 43.128C53.9035 43.1604 53.9015 43.1928 53.8994 43.2262C53.8931 43.3258 53.8869 43.4254 53.8806 43.525C53.8775 43.575 53.8775 43.575 53.8743 43.626C53.747 45.6536 53.6201 47.6812 53.4974 49.709C53.4953 49.7442 53.4932 49.7794 53.491 49.8156C53.4567 50.3833 53.4224 50.951 53.3882 51.5187C53.3558 52.0559 53.3234 52.5932 53.2909 53.1305C53.2887 53.1659 53.2866 53.2014 53.2844 53.2379C53.2179 54.3368 53.1502 55.4357 53.0814 56.5345C53.0781 56.5866 53.0781 56.5866 53.0748 56.6398C53.0334 57.2999 52.992 57.9599 52.9504 58.6199C52.9247 59.0282 52.8991 59.4364 52.8735 59.8446C52.8714 59.8781 52.8693 59.9117 52.8671 59.9463C52.8 61.0164 52.735 62.0866 52.6712 63.1569C52.6625 63.3031 52.6538 63.4492 52.645 63.5953C52.6076 64.2229 52.5701 64.8505 52.5333 65.4781C52.5184 65.733 52.5033 65.988 52.4881 66.2429C52.4793 66.3893 52.4707 66.5356 52.4623 66.6819C52.4531 66.841 52.4436 67.0001 52.434 67.1591C52.4315 67.2045 52.4289 67.2499 52.4263 67.2967C52.3704 68.2064 52.1921 68.9825 51.5091 69.6307C51.2327 69.8687 50.9399 70.0269 50.6013 70.1568C50.5742 70.1673 50.547 70.1777 50.519 70.1885C50.2242 70.295 49.9278 70.3138 49.616 70.3129C49.5688 70.313 49.5688 70.313 49.5207 70.3131C49.4154 70.3132 49.3102 70.3131 49.205 70.313C49.1283 70.3131 49.0517 70.3132 48.9751 70.3133C48.764 70.3135 48.5528 70.3135 48.3416 70.3134C48.1121 70.3134 47.8826 70.3136 47.6531 70.3138C47.1977 70.3141 46.7422 70.3142 46.2868 70.3142C45.7693 70.3142 45.2519 70.3145 44.7345 70.3147C43.4196 70.3154 42.1047 70.3157 40.7898 70.3159C40.1351 70.316 39.4804 70.3161 38.8257 70.3163C36.7259 70.3168 34.6261 70.3173 32.5262 70.3174C32.4259 70.3174 32.3255 70.3174 32.2252 70.3174C32.0239 70.3175 31.8227 70.3175 31.6214 70.3175C31.3858 70.3175 31.1502 70.3175 30.9145 70.3175C30.8471 70.3175 30.7797 70.3175 30.7122 70.3175C28.5459 70.3177 26.3795 70.3183 24.2132 70.3193C22.6564 70.32 21.0997 70.3206 19.5429 70.3208C19.4949 70.3208 19.4949 70.3208 19.4459 70.3208C18.7432 70.3209 18.0406 70.321 17.3379 70.321C17.0865 70.321 16.835 70.321 16.5836 70.321C16.5211 70.321 16.4585 70.321 16.396 70.321C15.3991 70.321 14.4022 70.3215 13.4054 70.3221C12.4014 70.3227 11.3975 70.3229 10.3936 70.3225C9.7706 70.3223 9.14764 70.3225 8.52467 70.3232C8.12745 70.3236 7.73023 70.3235 7.33302 70.3231C7.10652 70.3229 6.88004 70.3228 6.65354 70.3234C6.4475 70.3238 6.24146 70.3237 6.03541 70.3232C5.96133 70.3231 5.88726 70.3232 5.81319 70.3235C5.42947 70.3252 5.07585 70.3148 4.71017 70.1828C4.63589 70.157 4.63589 70.157 4.56011 70.1307C3.56719 69.717 2.7167 68.9301 2.05667 68.0935C1.95237 67.9619 1.84394 67.8343 1.73495 67.7065C1.69617 67.6606 1.65741 67.6146 1.61867 67.5686C1.55138 67.4888 1.48345 67.4098 1.41469 67.3312C0.888471 66.7116 0.751967 65.9836 0.80211 65.1938C0.81334 65.0791 0.827971 64.965 0.843685 64.8508C0.857787 64.7434 0.871653 64.636 0.88526 64.5286C0.895228 64.4506 0.895228 64.4506 0.905398 64.3709C0.928606 64.0856 0.928606 64.0856 0.801136 63.8403C0.728662 63.7774 0.654191 63.7168 0.577994 63.6585C0.245211 63.3944 0.0650254 62.9459 0.0121828 62.533C-0.0845036 61.2894 0.407193 60.0987 1.0298 59.0448C1.4038 58.3956 1.5605 57.826 1.61737 57.0778C1.63528 56.8483 1.6598 56.6196 1.68428 56.3908C1.76714 55.6121 1.84357 54.8329 1.9149 54.0532C1.97454 53.4085 2.04183 52.7645 2.10775 52.1205C2.17256 51.487 2.2362 50.8536 2.2941 50.2195C2.34808 49.6339 2.40907 49.049 2.46975 48.4641C2.51619 48.015 2.56019 47.5657 2.6017 47.1161C2.6601 46.4859 2.72272 45.8561 2.78586 45.2264C2.79108 45.1743 2.7963 45.1223 2.80167 45.0687C2.82648 44.8213 2.85132 44.574 2.87617 44.3266C2.93993 43.692 3.00348 43.0573 3.06698 42.4227C3.07162 42.3763 3.07162 42.3763 3.07636 42.3289C3.20396 41.0536 3.32993 39.7781 3.45512 38.5026C3.46521 38.3999 3.47529 38.2971 3.48537 38.1944C3.49042 38.143 3.49547 38.0916 3.50066 38.0387C3.52144 37.827 3.54222 37.6154 3.56299 37.4038C3.57361 37.2957 3.58422 37.1876 3.59483 37.0795C3.73644 35.637 3.87894 34.1946 4.02145 32.7523C4.03902 32.5744 4.05659 32.3965 4.07417 32.2186C4.25675 30.3704 4.43943 28.5223 4.62212 26.6741C4.65927 26.2983 4.69641 25.9225 4.73356 25.5467C4.73723 25.5096 4.74091 25.4724 4.7447 25.4341C5.01769 22.6723 5.01769 22.6723 5.29041 19.9106C5.29372 19.877 5.29704 19.8434 5.30045 19.8088C5.3204 19.6067 5.3204 19.6067 5.34035 19.4045C5.38251 18.9773 5.42471 18.5502 5.46696 18.1231C5.49844 17.8049 5.52989 17.4866 5.56132 17.1684C5.56439 17.1373 5.56746 17.1063 5.57062 17.0743C5.65696 16.2001 5.74226 15.3258 5.82658 14.4514C5.84711 14.2385 5.86771 14.0257 5.88834 13.8129C5.8912 13.7834 5.89405 13.754 5.89699 13.7237C5.90834 13.6066 5.9197 13.4895 5.93107 13.3724C5.96614 13.0111 6.00087 12.6497 6.03527 12.2883C6.05456 12.0864 6.07415 11.8846 6.09384 11.6827C6.10278 11.5904 6.1116 11.4979 6.12027 11.4055C6.20403 10.5137 6.32881 9.75883 6.9968 9.10898C7.03965 9.06485 7.03965 9.06485 7.08336 9.01982C7.57099 8.54667 8.20734 8.35493 8.87028 8.31645C8.91874 8.31326 8.9672 8.31008 9.01712 8.30679C9.17516 8.29654 9.33323 8.28699 9.49131 8.27748C9.59893 8.27063 9.70655 8.26376 9.81417 8.25685C10.2885 8.2269 10.7628 8.19908 11.2375 8.175C11.269 8.1734 11.3005 8.1718 11.333 8.17015C11.3649 8.16853 11.3967 8.16692 11.4295 8.16526C11.4945 8.16195 11.5596 8.15865 11.6246 8.15535C11.6734 8.15288 11.6734 8.15288 11.7231 8.15036C12.3075 8.12051 12.8909 8.08164 13.4746 8.0406C14.0355 8.00126 14.5964 7.96793 15.158 7.94015C15.7463 7.91088 16.3337 7.8714 16.9212 7.83004C17.5071 7.78892 18.0923 7.75496 18.6794 7.737C18.6773 7.66216 18.6773 7.66216 18.6752 7.5858C18.6759 7.02345 19.0422 6.4224 19.4278 6.03242C20.1258 5.4655 20.8799 5.2844 21.7634 5.27384C21.8432 5.27247 21.9229 5.27109 22.0027 5.26969C22.1262 5.26773 22.2497 5.26588 22.3732 5.26424C23.2707 5.28788 23.2707 5.28788 24.0671 4.93831C24.1917 4.78955 24.2204 4.63734 24.2193 4.44737C24.2196 4.39447 24.2196 4.39447 24.2199 4.34051C24.2103 4.22012 24.1913 4.10981 24.1677 3.99167C23.9787 2.98804 24.1337 1.94716 24.7007 1.09554C24.7687 1.00467 24.8398 0.919868 24.9157 0.835531C24.9465 0.79823 24.9465 0.79823 24.978 0.760176C25.7368 -0.0896853 26.9567 -0.12348 27.976 0.158798Z" fill="#DEF5EE"/>
<path d="M51.1064 5.77606C51.1394 5.77584 51.1724 5.77562 51.2064 5.77539C51.5294 5.77676 51.8328 5.83307 52.1472 5.9076C52.1742 5.91383 52.2012 5.92006 52.229 5.92648C52.6347 6.0206 53.0352 6.13342 53.4334 6.25549C53.4896 6.27272 53.5459 6.28976 53.6023 6.30661C54.1435 6.46924 54.6312 6.69587 55.0575 7.07171C55.0917 7.1015 55.1259 7.1313 55.1611 7.162C55.5455 7.5195 55.8232 7.96689 55.9306 8.48526C55.9377 8.51929 55.9447 8.55332 55.952 8.58839C56.0684 9.43568 55.9432 10.3383 55.8832 11.1884C55.8709 11.3641 55.859 11.5399 55.8471 11.7157C55.8423 11.7865 55.8375 11.8574 55.8327 11.9282C55.8291 11.9806 55.8291 11.9806 55.8255 12.0341C55.8184 12.139 55.8112 12.2439 55.804 12.3489C55.7658 12.9066 55.7303 13.4645 55.6967 14.0225C55.6918 14.1044 55.6868 14.1863 55.6818 14.2682C55.6723 14.4265 55.6627 14.5849 55.6532 14.7432C55.6331 15.0779 55.6127 15.4126 55.5922 15.7473C55.5874 15.8255 55.5826 15.9038 55.5778 15.9821C55.537 16.6498 55.4957 17.3175 55.4544 17.9852C55.4503 18.051 55.4503 18.051 55.4462 18.1181C55.4185 18.5656 55.3908 19.0131 55.363 19.4606C55.3304 19.9874 55.2978 20.5142 55.2654 21.0409C55.2633 21.0748 55.2612 21.1086 55.259 21.1434C55.2124 21.8993 55.1682 22.6554 55.1274 23.4117C55.0918 24.0698 55.056 24.7275 55.0034 25.3845C54.9725 25.7794 54.9527 26.1748 54.9328 26.5704C54.9087 27.0478 54.8806 27.5242 54.8426 28.0007C54.8082 28.4497 54.7842 28.8992 54.7599 29.3489C54.694 30.5668 54.6201 31.7843 54.5447 33.0016C54.5287 33.2596 54.5128 33.5175 54.497 33.7754C54.4672 34.2576 54.4374 34.7398 54.4075 35.2219C54.3981 35.3738 54.3887 35.5257 54.3793 35.6776C54.3285 36.5006 54.2746 37.3234 54.2187 38.146C54.1693 38.8741 54.1235 39.6022 54.0792 40.3306C54.0322 41.103 53.9841 41.8754 53.9356 42.6477C53.9255 42.8078 53.9154 42.9678 53.9054 43.1279C53.9034 43.1603 53.9013 43.1927 53.8992 43.2261C53.893 43.3257 53.8867 43.4253 53.8805 43.5249C53.8784 43.5582 53.8763 43.5916 53.8741 43.6259C53.7468 45.6535 53.62 47.6811 53.4973 49.7089C53.4952 49.7441 53.493 49.7793 53.4908 49.8155C53.4565 50.3832 53.4223 50.9509 53.388 51.5186C53.3556 52.0559 53.3232 52.5931 53.2907 53.1304C53.2886 53.1659 53.2864 53.2013 53.2842 53.2378C53.2177 54.3367 53.15 55.4356 53.0812 56.5344C53.0779 56.5865 53.0779 56.5866 53.0746 56.6398C53.0333 57.2998 52.9918 57.9598 52.9503 58.6199C52.9246 59.0281 52.8989 59.4363 52.8733 59.8445C52.8712 59.8781 52.8691 59.9116 52.867 59.9462C52.7999 61.0163 52.7348 62.0865 52.6711 63.1568C52.6624 63.303 52.6536 63.4491 52.6449 63.5952C52.6074 64.2228 52.5699 64.8504 52.5332 65.478C52.5182 65.7329 52.5032 65.9879 52.4879 66.2428C52.4792 66.3892 52.4705 66.5355 52.4621 66.6818C52.4529 66.8409 52.4434 67 52.4339 67.1591C52.4313 67.2045 52.4288 67.2499 52.4262 67.2966C52.3702 68.2063 52.192 68.9824 51.509 69.6306C51.2326 69.8687 50.9397 70.0268 50.6012 70.1567C50.574 70.1672 50.5469 70.1776 50.5189 70.1884C50.224 70.2949 49.9277 70.3137 49.6159 70.3128C49.5687 70.3129 49.5687 70.3129 49.5205 70.313C49.4153 70.3131 49.31 70.313 49.2048 70.3129C49.1282 70.313 49.0516 70.3131 48.975 70.3132C48.7638 70.3134 48.5526 70.3134 48.3415 70.3133C48.112 70.3133 47.8825 70.3135 47.653 70.3137C47.1975 70.314 46.7421 70.3141 46.2866 70.3141C45.7692 70.3141 45.2517 70.3144 44.7343 70.3147C43.4194 70.3153 42.1045 70.3156 40.7896 70.3158C40.1349 70.3159 39.4803 70.316 38.8256 70.3162C36.7258 70.3167 34.6259 70.3172 32.5261 70.3173C32.4257 70.3173 32.3254 70.3173 32.225 70.3173C32.0238 70.3174 31.8225 70.3174 31.6212 70.3174C31.3856 70.3174 31.15 70.3174 30.9144 70.3174C30.8469 70.3174 30.7795 70.3174 30.7121 70.3175C28.5457 70.3176 26.3794 70.3182 24.213 70.3192C22.6563 70.3199 21.0995 70.3205 19.5428 70.3207C19.4948 70.3207 19.4948 70.3207 19.4458 70.3207C18.7431 70.3208 18.0404 70.3209 17.3377 70.3209C17.0863 70.3209 16.8349 70.3209 16.5835 70.3209C16.5209 70.3209 16.4584 70.3209 16.3958 70.3209C15.399 70.3209 14.4021 70.3214 13.4052 70.322C12.4013 70.3226 11.3974 70.3228 10.3934 70.3224C9.77045 70.3222 9.14748 70.3224 8.52451 70.3231C8.1273 70.3235 7.73008 70.3234 7.33286 70.323C7.10637 70.3228 6.87988 70.3227 6.65339 70.3233C6.44734 70.3237 6.2413 70.3236 6.03525 70.3231C5.96118 70.323 5.88711 70.3231 5.81303 70.3234C5.42931 70.3251 5.0757 70.3148 4.71002 70.1827C4.63574 70.1569 4.63574 70.1569 4.55996 70.1306C3.56704 69.7169 2.71655 68.93 2.05652 68.0934C1.95222 67.9618 1.84379 67.8342 1.7348 67.7064C1.69601 67.6605 1.65725 67.6145 1.61852 67.5685C1.55123 67.4887 1.4833 67.4097 1.41454 67.3311C0.887541 66.7106 0.75341 65.9841 0.801957 65.1937C0.817201 65.0237 0.839933 64.8552 0.863832 64.6862C0.895131 64.4542 0.911487 64.2216 0.926682 63.988C1.11345 64.0486 1.29286 64.1186 1.47317 64.1959C1.79686 64.3093 2.1071 64.3337 2.44835 64.3365C2.49598 64.3372 2.54362 64.3379 2.5927 64.3386C2.72473 64.3405 2.85677 64.3419 2.98882 64.3433C3.13316 64.3448 3.27749 64.3468 3.42183 64.3488C3.74204 64.3529 4.06225 64.3565 4.38247 64.36C4.58603 64.3622 4.78959 64.3646 4.99315 64.3669C5.93818 64.3779 6.88322 64.3878 7.82827 64.3974C8.1251 64.4004 8.42194 64.4034 8.71877 64.4065C8.76191 64.4069 8.80504 64.4074 8.84948 64.4078C8.93728 64.4087 9.02509 64.4096 9.11289 64.4105C9.8828 64.4185 10.6527 64.4263 11.4226 64.4341C12.1553 64.4416 12.8881 64.449 13.6208 64.4566C17.5927 64.4976 21.5646 64.5377 26.4167 64.5728C26.5783 64.5739 26.7399 64.575 26.9016 64.5762C27.0098 64.577 27.1181 64.5777 27.2263 64.5784C28.7096 64.5888 30.189 64.6379 31.6709 64.7032C32.773 64.7518 33.8734 64.7945 34.9767 64.7936C35.0504 64.7937 35.0504 64.7937 35.1256 64.7937C35.6313 64.7937 36.134 64.7778 36.6384 64.7403C36.6822 64.737 36.7259 64.7338 36.771 64.7305C37.5462 64.6668 38.1898 64.5376 38.76 63.988C38.8161 63.941 38.8724 63.8942 38.9289 63.8477C39.1352 63.6674 39.2977 63.4541 39.4668 63.2397C39.5048 63.1929 39.5429 63.1461 39.581 63.0994C40.3221 62.1884 41.0159 61.2264 41.6143 60.2157C41.6738 60.1157 41.7341 60.0162 41.7945 59.9168C42.9002 58.095 43.829 56.1701 44.5806 54.1763C44.5977 54.1311 44.5977 54.1311 44.6152 54.085C44.6765 53.923 44.7369 53.7607 44.7973 53.5983C44.8288 53.5145 44.8608 53.4308 44.893 53.3472C45.7594 51.0772 46.3516 48.6888 46.804 46.3048C46.826 46.1919 46.8496 46.0795 46.8737 45.967C47.2502 44.1918 47.4748 42.3726 47.6634 40.5686C47.6697 40.5086 47.6697 40.5086 47.6761 40.4473C47.6795 40.4135 47.683 40.3797 47.6865 40.3449C47.6987 40.2486 47.6987 40.2486 47.7198 40.1449C47.7399 40.0425 47.7506 39.9439 47.7581 39.8399C47.7626 39.781 47.7626 39.781 47.7671 39.7209C47.7718 39.6567 47.7718 39.6567 47.7766 39.5912C47.8024 39.2529 47.8311 38.9151 47.8646 38.5775C48.0687 36.4936 48.1698 34.4037 48.2675 32.3128C48.2832 31.9772 48.2993 31.6416 48.3153 31.306C48.3843 29.8665 48.4503 28.4269 48.5099 26.987C48.5516 25.9785 48.5968 24.9705 48.6593 23.963C48.6656 23.8609 48.6718 23.7588 48.6779 23.6567C48.7888 21.8224 48.9174 19.9893 49.0457 18.1562C49.0674 17.8457 49.0888 17.5353 49.1102 17.2249C49.1503 16.6414 49.1911 16.0581 49.2319 15.4747C49.2593 15.0828 49.2867 14.6909 49.314 14.2991C49.3404 13.9204 49.3668 13.5417 49.3934 13.1631C49.4147 12.8585 49.436 12.5539 49.4572 12.2494C49.4683 12.0895 49.4795 11.9296 49.4907 11.7698C49.5549 10.857 49.6189 9.9454 49.6189 9.02998C49.6189 8.93041 49.6197 8.83086 49.6205 8.7313C49.6224 8.22871 49.6016 7.76804 49.255 7.37134C49.0273 7.15735 48.7574 7.06141 48.4458 7.06649C48.37 7.07056 48.2942 7.0754 48.2185 7.08091C48.177 7.08332 48.1355 7.08574 48.0928 7.08823C48.0053 7.09339 47.9177 7.09888 47.8302 7.10466C47.7034 7.11297 47.5767 7.12034 47.4498 7.12733C47.1858 7.14199 46.9218 7.15793 46.6578 7.17393C46.5575 7.17995 46.4572 7.18597 46.3568 7.19197C46.1151 7.20647 45.8734 7.22104 45.6316 7.23564C45.3483 7.25275 45.065 7.26977 44.7817 7.28679C44.2749 7.31723 43.768 7.34774 43.2612 7.37829C42.773 7.40773 42.2848 7.43712 41.7966 7.46648C41.7666 7.46828 41.7365 7.47009 41.7056 7.47195C41.5848 7.47921 41.464 7.48647 41.3433 7.49373C38.9631 7.63681 38.9631 7.63681 36.5829 7.78054C36.5006 7.78552 36.4183 7.7905 36.3359 7.79548C36.0642 7.81195 35.7924 7.82884 35.5208 7.84637C35.4661 7.84985 35.4114 7.85333 35.3551 7.85692C35.2489 7.86372 35.1427 7.87065 35.0365 7.87771C34.6692 7.9008 34.3051 7.90734 33.9373 7.90321C33.9286 7.5357 33.9428 7.18294 34.0205 6.82226C34.0959 6.74682 34.2135 6.76755 34.3154 6.76201C34.3972 6.75743 34.3972 6.75743 34.4806 6.75275C34.541 6.74955 34.6014 6.74636 34.6618 6.74317C34.7242 6.73972 34.7866 6.73624 34.849 6.73276C35.0147 6.72353 35.1804 6.71453 35.3461 6.70558C35.6386 6.68977 35.931 6.67365 36.2235 6.65742C36.2555 6.65565 36.2875 6.65388 36.3205 6.65205C36.7876 6.62614 37.2541 6.59539 37.7206 6.56086C38.1877 6.52663 38.6552 6.50094 39.1229 6.47642C39.3725 6.46332 39.6221 6.44983 39.8717 6.43639C39.9203 6.43377 39.9689 6.43116 40.019 6.42847C40.5484 6.39993 41.0776 6.36804 41.6068 6.33505C41.9642 6.31279 42.3217 6.29107 42.6792 6.26921C42.8133 6.26101 42.9473 6.2528 43.0813 6.24459C43.6131 6.212 44.1449 6.17962 44.6767 6.14747C45.1921 6.11628 45.7074 6.0847 46.2228 6.05312C47.2199 5.99201 47.2199 5.99201 47.6051 5.96867C47.6592 5.96539 47.7133 5.96211 47.769 5.95874C47.8742 5.95239 47.9794 5.94607 48.0847 5.93978C48.3853 5.92174 48.6859 5.90301 48.9865 5.88349C49.1678 5.87176 49.3492 5.86023 49.5305 5.84871C49.6189 5.84304 49.7074 5.83728 49.7958 5.83142C50.2326 5.80247 50.6685 5.77772 51.1064 5.77606Z" fill="#F53910"/>
<path d="M52.4385 6.03247C53.5284 6.13498 54.6852 6.59036 55.4201 7.42166C55.669 7.72903 55.8506 8.09832 55.9308 8.4854C55.9379 8.51943 55.945 8.55347 55.9523 8.58853C56.0687 9.43582 55.9435 10.3385 55.8835 11.1885C55.8712 11.3643 55.8593 11.54 55.8474 11.7158C55.8426 11.7867 55.8378 11.8575 55.833 11.9284C55.8294 11.9808 55.8294 11.9808 55.8258 12.0342C55.8187 12.1391 55.8115 12.2441 55.8043 12.349C55.7661 12.9068 55.7305 13.4646 55.697 14.0227C55.692 14.1046 55.6871 14.1864 55.6821 14.2683C55.6726 14.4267 55.663 14.585 55.6535 14.7433C55.6334 15.078 55.6129 15.4127 55.5925 15.7474C55.5877 15.8257 55.5829 15.9039 55.5781 15.9822C55.5373 16.6499 55.496 17.3176 55.4547 17.9853C55.4506 18.0511 55.4506 18.0511 55.4465 18.1182C55.4188 18.5657 55.3911 19.0132 55.3633 19.4607C55.3307 19.9875 55.2981 20.5143 55.2656 21.0411C55.2636 21.0749 55.2615 21.1087 55.2593 21.1435C55.2127 21.8995 55.1685 22.6555 55.1277 23.4118C55.0921 24.0699 55.0563 24.7276 55.0037 25.3846C54.9728 25.7796 54.953 26.1749 54.933 26.5706C54.909 27.048 54.8809 27.5243 54.8429 28.0008C54.8085 28.4499 54.7844 28.8994 54.7602 29.349C54.6943 30.567 54.6204 31.7844 54.545 33.0018C54.529 33.2597 54.5131 33.5176 54.4972 33.7756C54.4675 34.2577 54.4377 34.7399 54.4078 35.2221C54.3984 35.3739 54.389 35.5258 54.3796 35.6777C54.3288 36.5007 54.2749 37.3235 54.219 38.1462C54.1696 38.8742 54.1238 39.6024 54.0795 40.3307C54.0325 41.1031 53.9844 41.8755 53.9358 42.6478C53.9258 42.8079 53.9157 42.968 53.9057 43.1281C53.9036 43.1604 53.9016 43.1928 53.8995 43.2262C53.8933 43.3258 53.887 43.4254 53.8808 43.525C53.8787 43.5584 53.8766 43.5917 53.8744 43.6261C53.7471 45.6536 53.6202 47.6812 53.4976 49.7091C53.4954 49.7442 53.4933 49.7794 53.4911 49.8156C53.4568 50.3833 53.4225 50.951 53.3883 51.5187C53.3559 52.056 53.3235 52.5933 53.291 53.1306C53.2888 53.166 53.2867 53.2014 53.2845 53.2379C53.218 54.3369 53.1503 55.4357 53.0815 56.5345C53.0782 56.5867 53.0782 56.5867 53.0749 56.6399C53.0336 57.2999 52.9921 57.96 52.9506 58.62C52.9249 59.0282 52.8992 59.4364 52.8736 59.8446C52.8715 59.8782 52.8694 59.9118 52.8672 59.9463C52.8002 61.0164 52.7351 62.0867 52.6714 63.157C52.6626 63.3031 52.6539 63.4492 52.6452 63.5954C52.6077 64.223 52.5702 64.8505 52.5335 65.4781C52.5185 65.7331 52.5034 65.988 52.4882 66.243C52.4795 66.3893 52.4708 66.5356 52.4624 66.682C52.4532 66.8411 52.4437 67.0001 52.4342 67.1592C52.4316 67.2046 52.4291 67.25 52.4264 67.2968C52.3705 68.2065 52.1923 68.9826 51.5093 69.6307C51.2329 69.8688 50.94 70.0269 50.6014 70.1569C50.5743 70.1673 50.5471 70.1778 50.5192 70.1885C50.2243 70.295 49.9279 70.3139 49.6161 70.3129C49.5689 70.313 49.5689 70.313 49.5208 70.3131C49.4156 70.3133 49.3103 70.3132 49.2051 70.3131C49.1285 70.3131 49.0519 70.3132 48.9753 70.3133C48.7641 70.3136 48.5529 70.3135 48.3418 70.3135C48.1123 70.3134 47.8828 70.3136 47.6533 70.3138C47.1978 70.3141 46.7423 70.3142 46.2869 70.3142C45.7695 70.3143 45.252 70.3145 44.7346 70.3148C43.4197 70.3155 42.1048 70.3157 40.7899 70.3159C40.1352 70.316 39.4806 70.3162 38.8259 70.3164C36.726 70.3169 34.6262 70.3173 32.5263 70.3175C32.426 70.3175 32.3256 70.3175 32.2253 70.3175C32.024 70.3175 31.8228 70.3175 31.6215 70.3175C31.3859 70.3176 31.1503 70.3176 30.9147 70.3176C30.8472 70.3176 30.7798 70.3176 30.7124 70.3176C28.546 70.3177 26.3796 70.3184 24.2133 70.3193C22.6565 70.32 21.0998 70.3207 19.5431 70.3209C19.495 70.3209 19.495 70.3209 19.4461 70.3209C18.7434 70.321 18.0407 70.321 17.338 70.321C17.0866 70.321 16.8352 70.321 16.5838 70.3211C16.5212 70.3211 16.4587 70.3211 16.3961 70.3211C15.3992 70.3211 14.4024 70.3215 13.4055 70.3221C12.4016 70.3227 11.3976 70.3229 10.3937 70.3226C9.77074 70.3224 9.14777 70.3225 8.5248 70.3232C8.12759 70.3236 7.73037 70.3236 7.33315 70.3231C7.10666 70.3229 6.88017 70.3229 6.65368 70.3234C6.44763 70.3239 6.24159 70.3238 6.03554 70.3232C5.96147 70.3231 5.88739 70.3232 5.81332 70.3236C5.4296 70.3252 5.07599 70.3149 4.71031 70.1829C4.63603 70.1571 4.63603 70.1571 4.56025 70.1307C3.51965 69.6972 2.64851 68.8608 1.96635 67.9794C1.911 67.91 1.85559 67.8407 1.80005 67.7715C1.81377 67.7441 1.82749 67.7166 1.84162 67.6884C1.86933 67.7075 1.89704 67.7265 1.92559 67.7462C2.56178 68.1697 3.16706 68.2415 3.91351 68.2391C3.98939 68.2392 4.06526 68.2393 4.14114 68.2394C4.34989 68.2397 4.55864 68.2394 4.76739 68.2391C4.99444 68.2388 5.22149 68.239 5.44853 68.2392C5.89904 68.2394 6.34954 68.2392 6.80005 68.2388C7.33981 68.2383 7.87957 68.2384 8.41934 68.2384C9.53907 68.2385 10.6588 68.238 11.7785 68.2373C11.9021 68.2372 12.0256 68.2372 12.1491 68.2371C12.1951 68.2371 12.1951 68.2371 12.242 68.237C12.9215 68.2366 13.601 68.2363 14.2805 68.2361C17.0675 68.2351 19.8546 68.2333 22.6417 68.231C23.0118 68.2307 23.3819 68.2304 23.752 68.2301C23.7854 68.2301 23.8188 68.23 23.8531 68.23C24.9014 68.2292 25.9496 68.2285 26.9979 68.2279C27.0481 68.2279 27.0481 68.2279 27.0994 68.2279C27.4036 68.2277 27.7079 68.2276 28.0121 68.2274C30.5457 68.2261 33.0792 68.2242 35.6128 68.2211C35.8653 68.2208 36.1177 68.2205 36.3702 68.2202C36.433 68.2201 36.4958 68.2201 36.5586 68.22C37.5593 68.2188 38.56 68.2181 39.5607 68.2176C40.5972 68.2171 41.6336 68.2159 42.6701 68.2141C43.2679 68.2131 43.8657 68.2125 44.4634 68.2126C44.8629 68.2126 45.2623 68.212 45.6617 68.2109C45.8894 68.2103 46.117 68.2099 46.3446 68.2103C46.5519 68.2107 46.7593 68.2102 46.9666 68.2092C47.0409 68.209 47.1152 68.209 47.1895 68.2094C48.0373 68.2131 48.7882 68.0415 49.4213 67.4334C49.9478 66.8469 50.1397 66.1692 50.185 65.3951C50.1876 65.3552 50.1901 65.3153 50.1928 65.2742C50.2012 65.1418 50.2092 65.0093 50.2173 64.8769C50.2233 64.7814 50.2293 64.6859 50.2353 64.5903C50.2483 64.3852 50.261 64.18 50.2736 63.9748C50.2937 63.6495 50.3141 63.3242 50.3345 62.9989C50.3632 62.5419 50.3917 62.085 50.4201 61.628C50.4491 61.16 50.4782 60.6921 50.5074 60.2241C50.5092 60.1954 50.511 60.1666 50.5128 60.137C50.5325 59.8219 50.5522 59.5069 50.5719 59.1918C50.5737 59.164 50.5754 59.1361 50.5772 59.1074C50.5859 58.9684 50.5946 58.8294 50.6033 58.6903C50.6235 58.3679 50.6436 58.0455 50.6635 57.7231C50.6761 57.5211 50.6887 57.3191 50.7013 57.1171C50.7071 57.0245 50.7128 56.932 50.7185 56.8394C50.7526 56.2853 50.7931 55.7322 50.8409 55.1791C50.8629 54.9214 50.8785 54.6636 50.8912 54.4053C50.8936 54.3584 50.8961 54.3115 50.8986 54.2632C50.9062 54.1174 50.9137 53.9715 50.921 53.8257C50.9515 53.2246 50.9858 52.6248 51.0359 52.025C51.0715 51.5938 51.0958 51.1621 51.119 50.7301C51.132 50.4885 51.1455 50.2469 51.159 50.0053C51.1631 49.9323 51.1631 49.9323 51.1672 49.8577C51.196 49.3463 51.2292 48.8351 51.2632 48.324C51.2685 48.2449 51.2737 48.1658 51.279 48.0867C51.2831 48.0249 51.2831 48.0249 51.2873 47.9618C51.3128 47.5772 51.3372 47.1925 51.3616 46.8077C51.3686 46.6971 51.3757 46.5865 51.3827 46.476C51.3874 46.4017 51.3921 46.3275 51.3968 46.2532C51.3992 46.2163 51.4015 46.1794 51.4039 46.1414C51.4157 45.9564 51.4274 45.7714 51.439 45.5863C51.4501 45.4107 51.4612 45.2351 51.4724 45.0595C51.4766 44.9942 51.4807 44.9288 51.4848 44.8635C51.5048 44.5438 51.5276 44.2255 51.5655 43.9074C51.5708 43.8194 51.5743 43.7314 51.5772 43.6433C51.5922 43.2228 51.6196 42.8035 51.6509 42.384C51.714 41.5335 51.769 40.6826 51.823 39.8315C51.8251 39.799 51.8271 39.7666 51.8293 39.7331C51.8559 39.3134 51.8824 38.8938 51.9088 38.4741C51.933 38.0904 51.9573 37.7067 51.9816 37.323C52.0263 36.6172 52.0709 35.9114 52.1155 35.2055C52.1595 34.5085 52.2035 33.8116 52.2476 33.1146C52.2504 33.071 52.2531 33.0275 52.2559 32.9826C52.2699 32.7617 52.2839 32.5407 52.2979 32.3197C52.3927 30.8206 52.4874 29.3216 52.5821 27.8225C52.6761 26.3361 52.77 24.8496 52.864 23.3632C52.8668 23.32 52.8695 23.2768 52.8723 23.2323C52.8996 22.8004 52.9269 22.3684 52.9543 21.9365C53.1121 19.4408 53.27 16.9451 53.4277 14.4494C53.4322 14.3792 53.4366 14.309 53.441 14.2387C53.4432 14.2044 53.4454 14.17 53.4476 14.1345C53.4604 13.9329 53.4731 13.7313 53.4859 13.5296C53.492 13.4331 53.4981 13.3365 53.5042 13.24C53.5121 13.115 53.52 12.9901 53.5279 12.8651C53.5465 12.5707 53.5651 12.2762 53.5835 11.9817C53.6129 11.5146 53.6423 11.0476 53.6735 10.5807C53.6856 10.3992 53.6975 10.2177 53.7093 10.0362C53.7147 9.95514 53.7202 9.87409 53.7258 9.79304C53.7559 9.3581 53.7737 8.92496 53.7749 8.48889C53.7751 8.44702 53.7753 8.40515 53.7754 8.36201C53.7732 7.65495 53.507 7.05797 53.012 6.55801C52.8371 6.39268 52.6553 6.22402 52.4385 6.11562C52.4385 6.08818 52.4385 6.06074 52.4385 6.03247Z" fill="#DB1700"/>
<path d="M18.6377 7.73696C18.6412 7.77467 18.6412 7.77467 18.6447 7.81314C18.6553 7.92807 18.666 8.04299 18.6767 8.15791C18.6803 8.19746 18.6839 8.23701 18.6877 8.27776C18.6913 8.31635 18.6949 8.35493 18.6986 8.39469C18.7019 8.42996 18.7052 8.46523 18.7085 8.50157C18.7222 8.62176 18.7417 8.74034 18.7624 8.85949C18.7166 8.86179 18.6707 8.86409 18.6234 8.86646C18.4516 8.8751 18.2798 8.88389 18.108 8.89273C18.0339 8.89652 17.9599 8.90027 17.8858 8.90397C17.7788 8.90934 17.6718 8.91485 17.5647 8.92039C17.5321 8.92199 17.4995 8.9236 17.4659 8.92525C17.3086 8.93352 17.1528 8.94511 16.9964 8.96351C16.8019 8.98622 16.6078 8.99656 16.4122 9.005C16.3757 9.00669 16.3393 9.00837 16.3018 9.01011C16.1478 9.01725 15.9938 9.0241 15.8398 9.03098C15.7266 9.03608 15.6133 9.04133 15.5001 9.04657C15.4488 9.04878 15.4488 9.04878 15.3965 9.05104C15.2357 9.05851 15.0766 9.06934 14.9168 9.08815C14.7225 9.111 14.5287 9.1213 14.3334 9.12972C14.297 9.13141 14.2606 9.1331 14.223 9.13484C14.069 9.14197 13.915 9.14883 13.761 9.15571C13.6478 9.16081 13.5346 9.16605 13.4213 9.1713C13.3872 9.17277 13.353 9.17425 13.3178 9.17577C13.1222 9.18485 12.9292 9.20159 12.7348 9.22449C12.6292 9.23604 12.5242 9.24095 12.418 9.24389C12.3774 9.24519 12.3367 9.24649 12.2949 9.24783C12.2319 9.24982 12.2319 9.24982 12.1676 9.25185C11.2186 9.28019 11.2186 9.28019 10.4058 9.73256C10.0023 10.211 9.97852 10.8414 9.91915 11.4393C9.9023 11.6087 9.88442 11.778 9.86667 11.9472C9.86131 11.9987 9.86131 11.9987 9.85584 12.0512C9.82195 12.3745 9.78318 12.697 9.74325 13.0196C9.57656 14.3725 9.4289 15.7277 9.28301 17.0831C9.25465 17.3464 9.22603 17.6098 9.19727 17.8731C9.06499 19.085 8.94108 20.2974 8.82617 21.5111C8.78536 21.9409 8.74451 22.3704 8.69206 22.799C8.56972 23.8179 8.49189 24.843 8.40579 25.8655C8.3932 26.0149 8.3805 26.1644 8.3677 26.3139C8.32481 26.815 8.28323 27.3163 8.24394 27.8177C8.24158 27.8477 8.23922 27.8777 8.23678 27.9086C8.16669 28.8035 8.14864 29.6944 8.14391 30.5916C8.1375 31.7579 8.1186 32.9227 8.06205 34.0878C8.05967 34.1389 8.05728 34.1899 8.05483 34.2426C8.02037 34.9659 7.9585 35.6847 7.88446 36.4049C7.8714 36.5325 7.85877 36.6602 7.84643 36.7879C7.59415 39.393 7.18758 41.9957 6.55753 44.5366C6.49627 44.7842 6.44071 45.0328 6.38605 45.2819C6.29906 45.6711 6.1917 46.0527 6.07909 46.4352C6.03501 46.5869 5.99227 46.7389 5.94968 46.891C5.20482 49.5458 4.3018 52.1587 3.17178 54.6753C3.1475 54.7297 3.12323 54.7841 3.09898 54.8385C2.62289 55.9055 2.11624 56.9572 1.59192 58.0013C1.5782 58.0013 1.56448 58.0013 1.55035 58.0013C1.54223 57.6734 1.57413 57.3536 1.60963 57.028C1.61587 56.9693 1.6221 56.9105 1.6283 56.8518C1.6447 56.6971 1.66131 56.5424 1.67799 56.3877C1.70742 56.1144 1.73651 55.841 1.76553 55.5677C1.76874 55.5375 1.77196 55.5073 1.77527 55.4762C1.8276 54.9834 1.87527 54.4902 1.92078 53.9968C1.96882 53.4771 2.02149 52.9579 2.07497 52.4387C2.1511 51.6992 2.22639 50.9597 2.29399 50.2194C2.34797 49.6338 2.40895 49.049 2.46964 48.4641C2.51608 48.0149 2.56008 47.5657 2.60158 47.1161C2.65998 46.4859 2.7226 45.8561 2.78575 45.2263C2.79096 45.1743 2.79618 45.1223 2.80156 45.0686C2.82637 44.8213 2.8512 44.5739 2.87605 44.3266C2.93981 43.6919 3.00337 43.0573 3.06687 42.4226C3.06996 42.3917 3.07306 42.3607 3.07625 42.3289C3.20385 41.0536 3.32981 39.7781 3.45501 38.5025C3.46509 38.3998 3.47518 38.2971 3.48526 38.1944C3.49031 38.143 3.49535 38.0916 3.50055 38.0386C3.52132 37.827 3.5421 37.6154 3.56288 37.4037C3.57349 37.2956 3.5841 37.1875 3.59472 37.0794C3.73632 35.637 3.87883 34.1946 4.02133 32.7522C4.03891 32.5743 4.05648 32.3965 4.07405 32.2186C4.25663 30.3704 4.43932 28.5222 4.62201 26.6741C4.65915 26.2983 4.6963 25.9225 4.73344 25.5467C4.73712 25.5095 4.74079 25.4723 4.74458 25.434C5.01758 22.6723 5.01757 22.6723 5.29029 19.9105C5.29361 19.8769 5.29692 19.8434 5.30033 19.8088C5.32029 19.6066 5.32029 19.6066 5.34024 19.4044C5.3824 18.9773 5.4246 18.5502 5.46685 18.1231C5.49832 17.8048 5.52978 17.4866 5.56121 17.1683C5.56428 17.1373 5.56734 17.1063 5.5705 17.0743C5.65685 16.2001 5.74215 15.3258 5.82647 14.4513C5.847 14.2385 5.86759 14.0257 5.88823 13.8128C5.89108 13.7834 5.89394 13.754 5.89687 13.7237C5.90823 13.6066 5.91959 13.4895 5.93095 13.3724C5.96602 13.011 6.00076 12.6497 6.03516 12.2883C6.05444 12.0864 6.07404 11.8845 6.09372 11.6827C6.10267 11.5903 6.11148 11.4979 6.12015 11.4055C6.20392 10.5136 6.32869 9.75878 6.99669 9.10894C7.02525 9.07951 7.05382 9.05009 7.08325 9.01978C7.57088 8.54663 8.20723 8.35489 8.87017 8.31641C8.91863 8.31322 8.96708 8.31003 9.01701 8.30675C9.17505 8.29649 9.33312 8.28695 9.4912 8.27743C9.59882 8.27059 9.70644 8.26371 9.81405 8.25681C10.2883 8.22685 10.7627 8.19903 11.2374 8.17496C11.2689 8.17336 11.3004 8.17175 11.3329 8.1701C11.3807 8.16768 11.3807 8.16768 11.4293 8.16521C11.4944 8.16191 11.5595 8.15861 11.6245 8.15531C11.657 8.15366 11.6895 8.15201 11.723 8.15031C12.3073 8.12046 12.8908 8.0816 13.4744 8.04056C14.0353 8.00122 14.5961 7.96795 15.1576 7.9401C15.7875 7.90868 16.4166 7.86673 17.0457 7.8223C17.3959 7.79761 17.7461 7.7738 18.0966 7.75401C18.1272 7.75226 18.1579 7.7505 18.1894 7.7487C18.339 7.74051 18.4879 7.73504 18.6377 7.73696Z" fill="#FE512B"/>
<path d="M27.976 0.158798C28.0798 0.178167 28.0798 0.178167 28.1904 0.130164C28.3286 0.0859682 28.4356 0.0764498 28.5801 0.076135C28.6281 0.0760278 28.6761 0.0759207 28.7255 0.0758102C28.7751 0.0761318 28.8246 0.0764533 28.8757 0.0767846C28.9491 0.0763023 28.9491 0.0763023 29.024 0.0758102C29.8072 0.0775527 30.4642 0.327207 31.0509 0.847061C31.5185 1.3234 31.7099 1.95345 31.7168 2.60811C31.7085 2.99074 31.6088 3.35421 31.5086 3.72171C31.416 4.06665 31.3728 4.38681 31.3598 4.74359C31.6319 4.71561 31.9039 4.68751 32.1759 4.65934C32.2681 4.64981 32.3604 4.64029 32.4526 4.6308C32.5864 4.61704 32.7202 4.6032 32.8539 4.58931C32.8977 4.58478 32.9414 4.58024 32.9864 4.57557C33.2309 4.5499 33.4745 4.52091 33.7181 4.48829C34.6567 4.36829 35.6376 4.38027 36.443 4.93295C36.8097 5.22542 37.0435 5.66026 37.1388 6.11557C37.1504 6.28309 37.1495 6.44696 37.1388 6.61447C36.9886 6.65941 36.8425 6.66733 36.6864 6.67603C36.658 6.67766 36.6296 6.67929 36.6003 6.68097C36.5068 6.68629 36.4132 6.69139 36.3196 6.69649C36.2546 6.70014 36.1896 6.70381 36.1246 6.70749C35.9537 6.71713 35.7828 6.72658 35.612 6.73599C35.4375 6.74563 35.263 6.75546 35.0886 6.76526C34.7465 6.78447 34.4043 6.80347 34.0622 6.82235C34.0485 6.90742 34.0349 6.99253 34.0214 7.07764C34.0101 7.14873 34.0101 7.14873 33.9985 7.22125C33.8734 8.13168 34.121 9.07455 34.3387 9.95347C34.6531 11.2229 34.6531 11.2229 34.4024 11.6912C34.2094 11.9995 33.98 12.1659 33.6257 12.2525C33.1357 12.3314 32.6403 12.3435 32.1452 12.3656C32.0414 12.3705 31.9376 12.3754 31.8338 12.3804C31.6134 12.3908 31.3931 12.4011 31.1727 12.4113C30.6256 12.4366 30.0786 12.4629 29.5316 12.4894C29.4739 12.4922 29.4161 12.495 29.3583 12.4978C28.0266 12.5623 26.696 12.6419 25.3656 12.7285C24.8351 12.763 24.3044 12.7933 23.7735 12.8218C23.4426 12.8397 23.1119 12.8595 22.7813 12.8814C22.1286 12.9245 21.4766 12.9444 20.8225 12.9485C20.7336 12.9492 20.6447 12.95 20.5558 12.9512C20.4308 12.9527 20.3058 12.953 20.1808 12.9531C20.1439 12.9536 20.1069 12.9542 20.0688 12.9549C19.812 12.953 19.6088 12.8981 19.3862 12.7676C19.2234 12.5997 19.2107 12.4304 19.2132 12.2068C19.2244 12.0311 19.2648 11.8632 19.303 11.6918C19.429 11.0727 19.4826 10.5133 19.1783 9.94048C19.1291 9.84113 19.0805 9.74171 19.0328 9.64166C19.0205 9.61586 19.0081 9.59007 18.9954 9.56349C18.9019 9.36217 18.8305 9.15808 18.7678 8.94528C18.7593 8.91678 18.7509 8.88829 18.7422 8.85893C18.5431 8.149 18.5972 7.39812 18.9289 6.7392C19.3051 6.08064 19.8223 5.63731 20.5503 5.41172C20.9512 5.30432 21.3499 5.27878 21.7634 5.27384C21.8432 5.27247 21.9229 5.27109 22.0027 5.26969C22.1262 5.26773 22.2497 5.26588 22.3732 5.26424C23.2707 5.28788 23.2707 5.28788 24.0671 4.93831C24.1917 4.78955 24.2204 4.63734 24.2193 4.44737C24.2195 4.4121 24.2197 4.37684 24.2199 4.34051C24.2103 4.22012 24.1913 4.10981 24.1676 3.99167C23.9787 2.98804 24.1337 1.94716 24.7007 1.09554C24.7687 1.00467 24.8398 0.919868 24.9157 0.835531C24.9465 0.79823 24.9465 0.79823 24.978 0.760176C25.7368 -0.0896853 26.9567 -0.12348 27.976 0.158798Z" fill="#8E6AFE"/>
<path d="M37.3577 18.9123C37.4148 18.9119 37.4148 18.9119 37.4731 18.9116C37.5527 18.9112 37.6323 18.9109 37.7119 18.9107C37.8329 18.9103 37.9538 18.909 38.0748 18.9077C38.1527 18.9075 38.2307 18.9072 38.3087 18.9071C38.3443 18.9066 38.3799 18.906 38.4166 18.9055C38.8576 18.9071 39.268 19.0731 39.5938 19.3733C39.7572 19.5511 39.8725 19.7381 39.966 19.9601C39.981 19.9919 39.9959 20.0237 40.0113 20.0564C40.1489 20.4622 40.051 20.9515 39.8777 21.3321C39.6008 21.8513 39.1638 22.1529 38.6151 22.3412C38.4287 22.3952 38.2513 22.4194 38.0575 22.4279C38.0085 22.4301 37.9594 22.4323 37.9089 22.4346C37.8557 22.4369 37.8024 22.4391 37.7476 22.4414C37.691 22.4439 37.6344 22.4465 37.5779 22.449C37.4252 22.4557 37.2726 22.4623 37.12 22.4687C37.0243 22.4728 36.9286 22.4769 36.8328 22.4811C35.871 22.5229 34.9091 22.5593 33.947 22.5919C33.3435 22.6124 32.7402 22.6348 32.1369 22.6599C32.0759 22.6624 32.0759 22.6624 32.0136 22.665C31.9722 22.6667 31.9307 22.6685 31.8881 22.6702C31.8018 22.6738 31.7155 22.6774 31.6292 22.681C31.5851 22.6828 31.541 22.6847 31.4955 22.6865C31.1363 22.7014 30.777 22.7157 30.4177 22.7297C30.3743 22.7314 30.3743 22.7314 30.33 22.7331C30.2086 22.7379 30.0872 22.7426 29.9657 22.7474C28.8998 22.7891 27.8339 22.8317 26.768 22.8757C26.6662 22.8799 26.5643 22.8841 26.4624 22.8883C26.3059 22.8948 26.1494 22.9013 25.9929 22.9077C25.8331 22.9143 25.6733 22.9209 25.5135 22.9275C25.4606 22.9297 25.4078 22.9319 25.3533 22.9341C23.3516 23.0167 21.3498 23.095 19.3478 23.171C19.1259 23.1794 18.904 23.1879 18.6821 23.1964C18.5316 23.2021 18.381 23.2078 18.2305 23.2134C17.7599 23.2313 17.2895 23.2501 16.8191 23.2726C15.5337 23.3332 15.5337 23.3332 14.9924 22.8548C14.6418 22.4568 14.534 22.1076 14.5519 21.576C14.5931 21.0099 14.8952 20.5032 15.312 20.1264C15.9467 19.6497 16.5688 19.6008 17.3366 19.582C17.4331 19.5791 17.5295 19.5761 17.6259 19.573C17.8364 19.5664 18.0469 19.5602 18.2574 19.5543C18.6092 19.5443 18.9609 19.5323 19.3125 19.52C19.4373 19.5156 19.5621 19.5113 19.6869 19.507C19.7183 19.5059 19.7497 19.5048 19.782 19.5036C20.1415 19.4912 20.5011 19.4792 20.8607 19.4672C20.8938 19.4661 20.9269 19.465 20.9609 19.4639C20.9941 19.4628 21.0272 19.4617 21.0614 19.4605C21.0946 19.4594 21.1278 19.4583 21.1619 19.4572C21.2291 19.4549 21.2962 19.4527 21.3634 19.4505C21.5967 19.4427 21.8301 19.4349 22.0635 19.427C22.4602 19.4136 22.8569 19.4003 23.2536 19.3871C23.2861 19.3861 23.3186 19.385 23.3521 19.3839C24.1241 19.3583 24.8961 19.3341 25.6683 19.3129C25.7025 19.312 25.7367 19.311 25.7719 19.3101C26.1007 19.301 26.4295 19.2922 26.7583 19.2836C27.337 19.2686 27.9152 19.2519 28.4933 19.2204C28.69 19.21 28.8866 19.2037 29.0836 19.2C29.1542 19.1985 29.2248 19.1969 29.2954 19.1953C29.4019 19.1931 29.5085 19.1909 29.615 19.1888C30.099 19.18 30.099 19.18 30.5819 19.1494C31.0349 19.1105 31.491 19.1133 31.9453 19.1056C32.0707 19.1035 32.196 19.1011 32.3214 19.0987C32.3587 19.0981 32.3961 19.0976 32.4346 19.097C32.633 19.0932 32.8294 19.0834 33.0272 19.0668C33.329 19.0423 33.6307 19.0339 33.9334 19.0269C34.034 19.0246 34.1346 19.0221 34.2352 19.0195C34.4847 19.0132 34.7343 19.0073 34.9839 19.0013C35.1958 18.9962 35.4076 18.991 35.6195 18.9856C35.7177 18.9831 35.8159 18.9809 35.9141 18.9786C36.2166 18.9712 36.517 18.9575 36.8185 18.9298C36.9982 18.9153 37.1775 18.9132 37.3577 18.9123Z" fill="#9164FE"/>
<path d="M36.1207 36.0866C37.4011 36.0558 37.4011 36.0558 37.8521 36.4333C38.2255 36.7917 38.4279 37.0931 38.4398 37.6164C38.4445 38.2131 38.3032 38.5754 37.883 39.0082C37.3797 39.483 36.787 39.5964 36.1136 39.617C36.0577 39.6191 36.0018 39.6213 35.9459 39.6235C35.8248 39.6282 35.7038 39.6325 35.5827 39.6366C35.3842 39.6433 35.1858 39.6507 34.9873 39.6583C34.7711 39.6665 34.5549 39.6746 34.3386 39.6825C33.788 39.7026 33.2374 39.7244 32.6869 39.7471C32.6044 39.7505 32.5218 39.7539 32.4393 39.7573C32.3135 39.7625 32.1877 39.7677 32.0619 39.7729C30.8725 39.8218 29.6831 39.8693 28.4935 39.9132C28.4503 39.9148 28.4072 39.9164 28.3628 39.9181C28.1419 39.9262 27.9211 39.9344 27.7003 39.9425C25.8357 40.0111 23.9714 40.0849 22.1072 40.1614C22.0083 40.1654 21.9095 40.1695 21.8106 40.1736C21.2298 40.1974 20.6489 40.2212 20.068 40.2451C19.028 40.2879 17.9879 40.3305 16.9478 40.3725C16.6818 40.3832 16.4157 40.394 16.1496 40.4049C15.989 40.4115 15.8283 40.4179 15.6677 40.4244C15.595 40.4273 15.5224 40.4303 15.4497 40.4333C13.9082 40.4968 13.9082 40.4968 13.3241 39.9732C13.0319 39.6693 12.9249 39.2127 12.9309 38.8014C12.9819 38.198 13.2785 37.7088 13.7122 37.2982C14.2821 36.8299 14.8556 36.7792 15.5613 36.7719C15.6663 36.7704 15.7712 36.7687 15.8761 36.7668C15.9408 36.7657 16.0056 36.7648 16.0703 36.7641C16.2341 36.7618 16.3951 36.7529 16.558 36.7363C16.8489 36.7082 17.1401 36.7027 17.432 36.6962C17.5354 36.6939 17.6388 36.6914 17.7423 36.6888C17.962 36.6834 18.1817 36.6783 18.4014 36.6731C18.656 36.6672 18.9106 36.6611 19.1652 36.6549C19.266 36.6524 19.3668 36.6502 19.4676 36.6479C19.8005 36.64 20.1313 36.6249 20.4634 36.5992C20.6407 36.5865 20.8175 36.5821 20.9952 36.5798C21.0691 36.5785 21.1431 36.5771 21.2171 36.5758C21.2552 36.5752 21.2934 36.5745 21.3327 36.5739C21.9829 36.5627 22.6319 36.5432 23.2813 36.5094C24.2399 36.4598 25.1992 36.4372 26.1587 36.4136C26.3204 36.4096 26.4821 36.4055 26.6439 36.4014C26.6749 36.4007 26.706 36.3999 26.738 36.3991C27.1007 36.3898 27.4627 36.3777 27.8248 36.3549C28.2282 36.3298 28.6324 36.3257 29.0364 36.3176C29.3962 36.3102 29.7554 36.3021 30.1146 36.2795C30.485 36.2566 30.8558 36.2466 31.2267 36.2366C31.2584 36.2358 31.29 36.2349 31.3226 36.234C31.5869 36.2269 31.8512 36.22 32.1155 36.2132C32.3136 36.2081 32.5117 36.2029 32.7097 36.1975C32.801 36.1951 32.8922 36.1928 32.9834 36.1906C33.2997 36.1823 33.6144 36.1662 33.93 36.142C34.1162 36.1289 34.3022 36.1233 34.4889 36.1195C34.5454 36.1182 34.5454 36.1182 34.6031 36.1169C34.7234 36.1142 34.8437 36.1117 34.9639 36.1093C35.0257 36.108 35.0257 36.108 35.0888 36.1068C35.2952 36.1027 35.5017 36.0989 35.7081 36.0952C35.8456 36.0928 35.9832 36.09 36.1207 36.0866Z" fill="#9063FE"/>
<path d="M38.7938 27.9326C39.1703 28.3171 39.2773 28.6897 39.2741 29.2131C39.2611 29.7292 39.028 30.1308 38.6637 30.4907C37.9853 31.0721 37.1122 31.032 36.2686 31.0606C36.1756 31.064 36.0825 31.0674 35.9895 31.0708C35.7446 31.0798 35.4998 31.0884 35.2549 31.097C35.0133 31.1055 34.7717 31.1142 34.5301 31.123C34.4827 31.1247 34.4353 31.1264 34.3865 31.1282C34.2909 31.1316 34.1952 31.1351 34.0996 31.1386C33.9556 31.1438 33.8116 31.1489 33.6676 31.1541C32.8194 31.1846 31.9715 31.219 31.1235 31.2542C30.7486 31.2697 30.3737 31.2847 29.9987 31.2995C29.9687 31.3007 29.9387 31.3019 29.9077 31.3031C29.7569 31.309 29.606 31.315 29.4551 31.3209C29.2567 31.3287 29.0582 31.3365 28.8597 31.3443C28.263 31.3679 27.6663 31.3913 27.0696 31.4146C26.7967 31.4253 26.5238 31.436 26.2508 31.4467C26.1887 31.4492 26.1266 31.4516 26.0645 31.454C25.1697 31.4891 24.2749 31.5253 23.3801 31.5623C23.2417 31.568 23.1033 31.5737 22.965 31.5794C22.8249 31.5852 22.6848 31.5909 22.5447 31.5967C22.5028 31.5984 22.5028 31.5984 22.4601 31.6002C22.1574 31.6127 21.8547 31.6252 21.552 31.6378C21.24 31.6508 20.928 31.6638 20.6161 31.6766C20.5654 31.6787 20.5147 31.6808 20.4625 31.6829C19.5758 31.7193 18.6889 31.7514 17.8019 31.7809C17.3616 31.7957 16.9216 31.8117 16.4817 31.8368C16.1818 31.8539 15.8824 31.8612 15.5821 31.8635C15.53 31.8647 15.4779 31.8659 15.4242 31.8672C14.9544 31.8704 14.5328 31.773 14.1893 31.4348C13.8977 31.0884 13.7418 30.6838 13.7605 30.2306C13.8228 29.6257 14.1045 29.093 14.5635 28.6908C15.0317 28.3571 15.4794 28.2182 16.0507 28.1984C16.1299 28.195 16.1299 28.195 16.2107 28.1916C16.3566 28.1854 16.5026 28.1799 16.6485 28.1746C16.7737 28.1699 16.899 28.1649 17.0242 28.1598C17.4788 28.1415 17.9336 28.1249 18.3884 28.1088C18.4257 28.1074 18.463 28.1061 18.5014 28.1047C20.3964 28.0372 22.2916 27.9779 24.1872 27.9278C24.7307 27.9134 25.2742 27.8983 25.8177 27.8804C25.8655 27.8789 25.9134 27.8774 25.9626 27.8759C26.1843 27.8684 26.4046 27.8574 26.6256 27.8387C26.9492 27.8126 27.2728 27.8047 27.5973 27.7966C27.7167 27.7936 27.836 27.7904 27.9554 27.7872C28.1318 27.7825 28.3081 27.7778 28.4845 27.7732C29.9779 27.7338 31.4711 27.6891 32.9642 27.6386C32.9991 27.6374 33.0339 27.6363 33.0698 27.635C33.7681 27.6114 34.4663 27.5875 35.1645 27.5633C35.4294 27.5541 35.6942 27.545 35.9591 27.5359C36.1431 27.5296 36.3271 27.5232 36.5112 27.5167C36.5969 27.5137 36.6827 27.5107 36.7684 27.5078C36.8716 27.5042 36.9749 27.5006 37.0781 27.497C37.7302 27.4747 38.2719 27.476 38.7938 27.9326Z" fill="#9063FE"/>
<path d="M29.2227 44.8585C29.4155 44.8543 29.6082 44.8514 29.8011 44.8494C29.8744 44.8485 29.9477 44.8472 30.021 44.8455C30.5532 44.8338 30.9654 44.8823 31.3987 45.2248C31.7243 45.538 31.8548 45.9474 31.8768 46.3889C31.8655 46.9159 31.5916 47.3583 31.2389 47.7334C30.5781 48.3523 29.7764 48.386 28.9224 48.4183C28.8402 48.4218 28.758 48.4253 28.6758 48.4288C28.2806 48.446 27.8853 48.4611 27.49 48.476C27.3611 48.4809 27.2323 48.4858 27.1035 48.4907C26.2128 48.5247 25.3221 48.5583 24.4314 48.5905C24.2895 48.5956 24.1477 48.6008 24.0058 48.606C23.8744 48.6107 23.7429 48.6154 23.6114 48.62C23.2307 48.6338 22.8505 48.6497 22.4703 48.6734C22.1605 48.6925 21.8504 48.7038 21.5402 48.7147C21.4332 48.7185 21.3263 48.7224 21.2193 48.7263C21.0302 48.7332 20.8411 48.74 20.6521 48.7468C20.3501 48.7576 20.0482 48.7685 19.7462 48.7795C19.6426 48.7832 19.5389 48.7869 19.4352 48.7906C19.0561 48.8042 18.6772 48.8207 18.2984 48.8404C17.0602 48.9047 17.0602 48.9047 16.5884 48.5065C16.5533 48.4731 16.5533 48.4731 16.5174 48.4391C16.4944 48.4172 16.4714 48.3954 16.4478 48.373C16.1528 48.0619 16.0748 47.7146 16.0793 47.2943C16.1045 46.7194 16.405 46.2441 16.8136 45.8536C17.4005 45.3627 17.988 45.2225 18.7425 45.2089C18.8037 45.2073 18.8649 45.2057 18.926 45.2041C19.0859 45.1999 19.2458 45.1964 19.4057 45.1931C19.6611 45.1876 19.9164 45.1811 20.1717 45.1747C20.2596 45.1726 20.3476 45.1707 20.4355 45.1688C20.7558 45.1617 21.0744 45.1456 21.394 45.1229C21.6523 45.1064 21.9108 45.1002 22.1695 45.0937C22.228 45.0922 22.2865 45.0906 22.345 45.089C22.4685 45.0856 22.592 45.0824 22.7155 45.0791C23.0409 45.0706 23.3662 45.0615 23.6916 45.0523C23.7405 45.0509 23.7405 45.0509 23.7903 45.0495C24.4185 45.0317 25.0464 45.0102 25.6743 44.9857C25.7395 44.9832 25.7395 44.9832 25.8059 44.9807C26.2063 44.9652 26.6065 44.9483 27.0065 44.925C27.6292 44.8888 28.2528 44.8775 28.8764 44.8658C28.9918 44.8636 29.1073 44.861 29.2227 44.8585Z" fill="#9063FE"/>
<path d="M26.7033 1.20961C26.7033 1.23705 26.7033 1.26449 26.7033 1.29277C26.6317 1.34376 26.6317 1.34376 26.5344 1.4019C26.1262 1.66634 25.8994 2.02949 25.7887 2.49844C25.7311 3.09838 25.7539 3.70128 26.1476 4.18678C26.2032 4.2496 26.2032 4.2496 26.2876 4.28617C26.3376 4.13613 26.3356 3.99822 26.3365 3.842C26.3373 3.77655 26.3382 3.7111 26.3391 3.64565C26.3395 3.61145 26.34 3.57726 26.3405 3.54203C26.3666 1.87161 26.3666 1.87161 26.7865 1.29277C26.9112 1.25119 26.9112 1.25119 26.9965 1.28854C27.3404 1.51312 27.5376 1.78653 27.6399 2.18598C27.7503 2.7738 27.5281 3.38516 27.2022 3.87042C26.9661 4.16531 26.7119 4.38223 26.3282 4.42487C26.0222 4.43469 25.8324 4.39489 25.5964 4.19263C25.2643 3.80809 25.1817 3.35181 25.1949 2.85264C25.2369 2.32697 25.403 1.88821 25.7916 1.52289C26.0817 1.29212 26.3353 1.20254 26.7033 1.20961Z" fill="#7A5EFF"/>
<path d="M36.2026 5.0799C36.288 5.14219 36.3592 5.20712 36.4319 5.28388C36.4663 5.31765 36.4663 5.31765 36.5014 5.35209C36.8488 5.72018 36.895 6.12925 36.8892 6.61429C36.4582 6.67747 36.03 6.71937 35.5952 6.74421C35.5509 6.74685 35.5509 6.74685 35.5057 6.74954C35.0104 6.7789 34.5167 6.79075 34.0205 6.78059C34.1311 6.19596 34.3771 5.69761 34.852 5.32546C35.2423 5.08966 35.7503 4.8808 36.2026 5.0799Z" fill="#5C3AFE"/>
<path d="M26.7865 1.25122C26.7507 1.36473 26.7143 1.47643 26.6652 1.58496C26.4059 2.16602 26.3938 2.80065 26.3889 3.42612C26.3879 3.52939 26.3868 3.63265 26.3851 3.73591C26.3841 3.79935 26.3835 3.86279 26.3833 3.92623C26.381 4.0803 26.3728 4.19681 26.2876 4.32778C25.983 4.11528 25.8479 3.82253 25.7634 3.46458C25.6723 2.94521 25.6946 2.35023 25.9776 1.89677C26.15 1.66042 26.4637 1.25122 26.7865 1.25122Z" fill="#FCFBFF"/>
<path d="M29.4891 1.66699C29.7812 1.92573 29.9316 2.22383 29.9563 2.61283C29.9721 3.21906 29.8448 3.78482 29.4465 4.26235C29.214 4.50571 29.214 4.50571 29.0317 4.53568C29.0856 4.36164 29.1523 4.20568 29.237 4.04457C29.6165 3.29304 29.6459 2.48485 29.4891 1.66699Z" fill="#FAF7FE"/>
<path d="M8.07756 30.1045C8.09128 30.1045 8.105 30.1045 8.11914 30.1045C8.12306 30.4726 8.12553 30.8407 8.12693 31.2088C8.12704 31.2367 8.12714 31.2646 8.12725 31.2933C8.13042 32.2333 8.10483 33.1699 8.05677 34.1087C8.05528 34.1378 8.05379 34.167 8.05225 34.197C8.03403 34.5513 8.01477 34.9056 7.99441 35.2598C7.98069 35.2598 7.96697 35.2598 7.95284 35.2598C7.94275 34.1814 7.95314 33.1052 7.99181 32.0273C7.99362 31.9765 7.99543 31.9257 7.9973 31.8733C8.01862 31.2834 8.04413 30.6938 8.07756 30.1045Z" fill="#F98971"/>
<path d="M38.5106 64.2792C38.4432 64.321 38.3756 64.3626 38.3079 64.404C38.2515 64.4387 38.2515 64.4387 38.1939 64.4741C38.0949 64.5287 38.0949 64.5287 38.0117 64.5287C38.0533 64.404 38.0533 64.404 38.1363 64.3539C38.1698 64.3396 38.2033 64.3252 38.2378 64.3104C38.2712 64.2956 38.3046 64.2808 38.339 64.2656C38.4275 64.2377 38.4275 64.2377 38.5106 64.2792Z" fill="#B4D2C6"/>
</svg>
